<?xml version="1.0" encoding="iso-8859-1"?>
<!-- Generator: Adobe Illustrator 18.0.0, SVG Export Plug-In . SVG Version: 6.00 Build 0)  -->
<!DOCTYPE svg PUBLIC "-//W3C//DTD SVG 1.1//EN" "http://www.w3.org/Graphics/SVG/1.1/DTD/svg11.dtd">
<svg version="1.1" id="Capa_1" xmlns="http://www.w3.org/2000/svg" xmlns:xlink="http://www.w3.org/1999/xlink" x="0px" y="0px"
	 viewBox="0 0 325.498 325.498" style="enable-background:new 0 0 325.498 325.498;" xml:space="preserve">
<g>
	<path d="M38.5,111.249h216c21.228,0,38.5-17.271,38.5-38.5s-17.272-38.5-38.5-38.5h-216C17.271,34.249,0,51.52,0,72.749
		S17.271,111.249,38.5,111.249z M237.5,59.999c7.03,0,12.75,5.72,12.75,12.75c0,7.03-5.72,12.75-12.75,12.75
		c-7.03,0-12.75-5.72-12.75-12.75C224.75,65.719,230.47,59.999,237.5,59.999z M46.5,62.749h35c5.514,0,10,4.486,10,10
		s-4.486,10-10,10h-35c-5.514,0-10-4.486-10-10S40.986,62.749,46.5,62.749z"/>
	<path d="M38.5,201.249h135.207c-0.957-1.72-1.728-3.558-2.273-5.5c-1.824-6.507-1.005-13.333,2.309-19.224l10.323-18.401
		c4.487-7.972,12.934-12.909,22.056-12.909c2.604,0,5.194,0.406,7.666,1.193c2.067-1.35,4.199-2.6,6.385-3.743
		c1.737-8.433,7.694-15.329,15.549-18.416H38.5c-21.229,0-38.5,17.271-38.5,38.5S17.271,201.249,38.5,201.249z M46.5,152.749h35
		c5.514,0,10,4.486,10,10c0,5.514-4.486,10-10,10h-35c-5.514,0-10-4.486-10-10C36.5,157.235,40.986,152.749,46.5,152.749z"/>
	<path d="M213.787,274.253c-2.474,0.787-5.062,1.194-7.665,1.194c-9.122,0-17.568-4.938-22.042-12.886l-10.35-18.445
		c-3.302-5.871-4.122-12.699-2.297-19.206c1.143-4.069,3.244-7.698,6.093-10.661H38.5c-21.229,0-38.5,17.271-38.5,38.5
		s17.271,38.5,38.5,38.5h189.093c-3.699-3.496-6.355-8.083-7.42-13.252C217.986,276.853,215.855,275.603,213.787,274.253z
		 M81.5,262.749h-35c-5.514,0-10-4.486-10-10c0-5.514,4.486-10,10-10h35c5.514,0,10,4.486,10,10
		C91.5,258.263,87.014,262.749,81.5,262.749z"/>
	<path d="M320.246,220.914L316,218.531c0.547-3.309,0.824-6.682,0.824-10.067c0-3.385-0.277-6.758-0.824-10.068l4.247-2.382
		c2.395-1.344,4.123-3.541,4.864-6.185c0.742-2.645,0.408-5.42-0.936-7.811l-10.338-18.427c-1.82-3.234-5.257-5.244-8.97-5.244
		c-1.754,0-3.492,0.455-5.031,1.317l-4.256,2.39c-5.674-4.901-12.223-8.74-19.245-11.282v-4.864c0-5.669-4.609-10.282-10.275-10.282
		h-21.13c-5.666,0-10.275,4.613-10.275,10.282v4.864c-7.022,2.542-13.571,6.381-19.246,11.283l-4.259-2.392
		c-1.535-0.86-3.273-1.315-5.027-1.315c-3.713,0-7.15,2.009-8.973,5.249l-10.334,18.417c-1.347,2.396-1.681,5.171-0.939,7.816
		c0.741,2.644,2.469,4.84,4.865,6.185l4.246,2.382c-0.547,3.31-0.824,6.683-0.824,10.068c0,3.385,0.277,6.758,0.824,10.067
		l-4.245,2.382c-2.395,1.343-4.123,3.539-4.866,6.183c-0.743,2.646-0.41,5.422,0.936,7.814l10.339,18.427
		c1.82,3.234,5.257,5.243,8.97,5.243c1.754,0,3.492-0.455,5.029-1.317l4.256-2.39c5.675,4.902,12.224,8.741,19.246,11.282v4.864
		c0,5.67,4.609,10.282,10.275,10.282h21.13c5.666,0,10.275-4.613,10.275-10.282v-4.864c7.022-2.541,13.571-6.379,19.245-11.281
		l4.261,2.393c1.534,0.859,3.272,1.314,5.024,1.314c0,0,0,0,0,0c3.713,0,7.151-2.009,8.974-5.249l10.334-18.417
		c1.348-2.396,1.681-5.173,0.938-7.819C324.369,224.452,322.641,222.256,320.246,220.914z M255.494,238.298
		c-16.477,0-29.833-13.356-29.833-29.835c0-16.479,13.357-29.835,29.833-29.835c16.476,0,29.833,13.356,29.833,29.835
		C285.327,224.942,271.97,238.298,255.494,238.298z"/>
</g>
<g>
</g>
<g>
</g>
<g>
</g>
<g>
</g>
<g>
</g>
<g>
</g>
<g>
</g>
<g>
</g>
<g>
</g>
<g>
</g>
<g>
</g>
<g>
</g>
<g>
</g>
<g>
</g>
<g>
</g>
</svg>
