<?xml version="1.0" encoding="iso-8859-1"?>
<!-- Generator: Adobe Illustrator 16.0.0, SVG Export Plug-In . SVG Version: 6.00 Build 0)  -->
<!DOCTYPE svg PUBLIC "-//W3C//DTD SVG 1.1//EN" "http://www.w3.org/Graphics/SVG/1.1/DTD/svg11.dtd">
<svg version="1.1" id="Capa_1" xmlns="http://www.w3.org/2000/svg" xmlns:xlink="http://www.w3.org/1999/xlink" x="0px" y="0px"
	 width="91.203px" height="91.203px" viewBox="0 0 91.203 91.203" style="enable-background:new 0 0 91.203 91.203;"
	 xml:space="preserve">
<g>
	<path d="M32.847,12.755C32.847,5.711,38.558,0,45.603,0c7.043,0,12.754,5.711,12.754,12.755c0,7.044-5.711,12.755-12.754,12.755
		C38.558,25.51,32.847,19.799,32.847,12.755z M51.732,34.2c0.129-2.777,1.084-5.348,2.623-7.474c-1.08-0.226-2.195-0.346-3.34-0.346
		H40.192c-1.141,0-2.256,0.119-3.33,0.343c1.637,2.271,2.617,5.043,2.633,8.045c1.988-1.095,4.271-1.718,6.697-1.718
		C48.16,33.05,50.033,33.46,51.732,34.2z M53.892,35.344c3.705,2.323,6.303,6.254,6.776,10.817c1.511,0.706,3.188,1.112,4.966,1.112
		c6.491,0,11.752-5.261,11.752-11.751c0-6.491-5.261-11.752-11.752-11.752C59.205,23.771,53.99,28.938,53.892,35.344z
		 M46.192,59.407c6.491,0,11.752-5.263,11.752-11.753c0-6.489-5.262-11.751-11.752-11.751c-6.49,0-11.754,5.262-11.754,11.751
		C34.438,54.145,39.703,59.407,46.192,59.407z M51.177,60.207h-9.972c-8.297,0-15.047,6.751-15.047,15.047V87.45l0.031,0.19
		l0.84,0.264c7.918,2.473,14.797,3.299,20.459,3.299c11.059,0,17.469-3.152,17.864-3.354l0.785-0.398h0.084V75.254
		C66.224,66.958,59.474,60.207,51.177,60.207z M70.621,48.076h-9.895c-0.107,3.959-1.797,7.523-4.47,10.088
		c7.375,2.193,12.771,9.031,12.771,17.109v3.759c9.77-0.359,15.4-3.128,15.771-3.313l0.785-0.398h0.084V63.122
		C85.667,54.826,78.917,48.076,70.621,48.076z M25.572,47.273c2.299,0,4.438-0.67,6.25-1.813c0.576-3.757,2.59-7.04,5.467-9.276
		c0.012-0.22,0.033-0.438,0.033-0.66c0-6.491-5.262-11.752-11.75-11.752c-6.492,0-11.752,5.261-11.752,11.752
		C13.819,42.013,19.08,47.273,25.572,47.273z M36.125,58.164c-2.66-2.551-4.344-6.098-4.467-10.031
		c-0.367-0.027-0.73-0.057-1.104-0.057h-9.971c-8.297,0-15.047,6.75-15.047,15.046v12.196l0.031,0.189l0.84,0.264
		c6.352,1.984,12.021,2.897,16.945,3.186v-3.684C23.354,67.195,28.749,60.357,36.125,58.164z"/>
</g>
<g>
</g>
<g>
</g>
<g>
</g>
<g>
</g>
<g>
</g>
<g>
</g>
<g>
</g>
<g>
</g>
<g>
</g>
<g>
</g>
<g>
</g>
<g>
</g>
<g>
</g>
<g>
</g>
<g>
</g>
</svg>
