<?xml version="1.0" encoding="utf-8"?>
<!-- Generator: Adobe Illustrator 16.0.0, SVG Export Plug-In . SVG Version: 6.00 Build 0)  -->
<!DOCTYPE svg PUBLIC "-//W3C//DTD SVG 1.1//EN" "http://www.w3.org/Graphics/SVG/1.1/DTD/svg11.dtd">
<svg version="1.1" id="Layer_1" xmlns="http://www.w3.org/2000/svg" xmlns:xlink="http://www.w3.org/1999/xlink" x="0px" y="0px"
	 width="274.961px" height="75.16px" viewBox="0 0 274.961 75.16" enable-background="new 0 0 274.961 75.16" xml:space="preserve">
<g id="logo__item--business">
	<g transform="translate(119.6015625 93.78694136155536) scale(2.735798137903117 2.735798137903117) rotate(0 0 0)">
		<g enable-background="new    ">
			<path fill="#009688" d="M-15.349-25.832c-0.341-0.341-0.511-0.758-0.511-1.253c0-0.494,0.17-0.912,0.511-1.253
				s0.758-0.511,1.253-0.511c0.494,0,0.912,0.17,1.253,0.511s0.511,0.759,0.511,1.253c0,0.495-0.17,0.912-0.511,1.253
				s-0.758,0.511-1.253,0.511C-14.591-25.321-15.008-25.492-15.349-25.832z M-12.593-13.677H-15.6V-24.46h3.006V-13.677z"/>
		</g>
		<g enable-background="new    ">
			<path fill="#009688" d="M-10.549-27.686h5.672v14.009h-3.006v-11.344h-2.666V-27.686z"/>
		</g>
		<g enable-background="new    ">
			<path fill="#009688" d="M-0.137-26.905c0.928-0.735,2.087-1.102,3.477-1.102c1.389,0,2.545,0.368,3.467,1.102
				c0.922,0.735,1.383,1.64,1.383,2.716c0,1.076-0.414,2.001-1.243,2.776c1.163,0.895,1.744,2.071,1.744,3.527
				c0,1.229-0.494,2.265-1.483,3.107c-0.989,0.842-2.278,1.262-3.868,1.262c-1.59,0-2.879-0.42-3.868-1.262
				c-0.989-0.842-1.483-1.877-1.483-3.107c0-1.456,0.581-2.632,1.744-3.527c-0.842-0.788-1.263-1.717-1.263-2.786
				C-1.529-25.268-1.065-26.17-0.137-26.905z M1.817-16.593c0.468,0.314,0.975,0.471,1.523,0.471c0.548,0,1.055-0.157,1.523-0.471
				c0.468-0.313,0.701-0.771,0.701-1.373c0-0.601-0.227-1.062-0.681-1.383C4.429-19.67,3.915-19.83,3.341-19.83
				c-0.575,0-1.089,0.16-1.543,0.481c-0.454,0.321-0.681,0.782-0.681,1.383C1.116-17.365,1.35-16.907,1.817-16.593z M2.008-22.716
				c0.381,0.321,0.825,0.481,1.333,0.481c0.508,0,0.952-0.16,1.333-0.481c0.381-0.321,0.571-0.718,0.571-1.192
				c0-0.474-0.187-0.872-0.561-1.192c-0.374-0.321-0.822-0.481-1.343-0.481c-0.521,0-0.969,0.16-1.343,0.481
				c-0.374,0.321-0.561,0.718-0.561,1.192C1.437-23.434,1.627-23.037,2.008-22.716z"/>
		</g>
		<g enable-background="new    ">
			<path fill="#009688" d="M14.203-19.69v6.013h-3.006V-24.46h3.006v1.202c0.908-0.922,1.93-1.383,3.066-1.383
				c1.135,0,2.087,0.401,2.856,1.203c0.768,0.802,1.152,1.871,1.152,3.207v6.554h-3.006v-6.093c0-1.657-0.608-2.485-1.824-2.485
				c-0.601,0-1.126,0.217-1.573,0.651C14.427-21.169,14.203-20.531,14.203-19.69z"/>
		</g>
		<g enable-background="new    ">
			<path fill="#009688" d="M33.343-15.241c-1.216,1.149-2.642,1.723-4.279,1.723s-2.99-0.504-4.058-1.513
				c-1.069-1.009-1.603-2.362-1.603-4.059c0-1.696,0.544-3.046,1.633-4.048c1.089-1.002,2.375-1.503,3.858-1.503
				c1.483,0,2.742,0.448,3.778,1.343c1.035,0.895,1.553,2.124,1.553,3.687v1.603h-7.856c0.093,0.588,0.401,1.069,0.922,1.443
				c0.521,0.374,1.109,0.561,1.764,0.561c1.055,0,1.924-0.353,2.605-1.062L33.343-15.241z M30.457-21.634
				c-0.414-0.347-0.919-0.521-1.513-0.521c-0.595,0-1.139,0.18-1.633,0.541c-0.494,0.361-0.782,0.849-0.862,1.463h4.73
				C31.112-20.792,30.871-21.286,30.457-21.634z"/>
		</g>
		<g enable-background="new    ">
			<path fill="#009688" d="M38.716-24.46l1.844,2.886l1.904-2.886h3.527l-3.708,5.271l3.848,5.511h-3.587l-2.105-2.966l-2.044,2.966
				h-3.467l3.768-5.491l-3.567-5.291H38.716z"/>
		</g>
		<g enable-background="new    ">
			<path fill="#009688" d="M51.402-22.295v4.83c0,0.414,0.107,0.738,0.321,0.972c0.213,0.234,0.468,0.351,0.761,0.351
				c0.561,0,1.036-0.254,1.423-0.762l1.122,2.105c-0.936,0.855-1.921,1.282-2.956,1.282c-1.036,0-1.911-0.341-2.625-1.022
				c-0.715-0.682-1.072-1.61-1.072-2.786v-4.97h-1.263v-2.164h1.263v-3.227h3.026v3.227h2.605v2.164H51.402z"/>
		</g>
	</g>
</g>
<g id="logo__item--logo_0">
	<g transform="translate(-33.15990560676016 -17) scale(1.584974472952939 1.584974472952939) rotate(0 0 0)">
		<g>
			<path fill="#009688" d="M43.073,15.64v8.924l10.029,25.757c0,0,3.062,6.292-5.695,7.825H27.43c0,0-8.162-0.853-6.205-7.316
				l10.54-26.266V15.64H43.073z"/>
			<g>
				<g>
					<path fill="#004D40" d="M43.285,14.602H31.254c-0.975,0-1.767-0.867-1.767-1.938c0-1.071,0.792-1.938,1.767-1.938h12.031
						c0.979,0,1.77,0.866,1.77,1.938C45.055,13.735,44.264,14.602,43.285,14.602z"/>
				</g>
			</g>
			<path fill="#FFFFFF" d="M40.112,30.211c1.291,0,2.344,1.261,2.344,2.823c0,1.555-1.054,2.819-2.344,2.819
				c-1.294,0-2.344-1.264-2.344-2.819C37.768,31.471,38.818,30.211,40.112,30.211z"/>
			<ellipse fill="#FFFFFF" cx="32.917" cy="35.154" rx="1.975" ry="2.381"/>
			<path fill="#004D40" d="M43.966,23.972v-4.245c0,0,5.383-1.187,8.073,5.075C52.038,24.802,47.845,27.856,43.966,23.972z"/>
			<path fill="#004D40" d="M30.782,23.972v-4.245c0,0-5.384-1.187-8.073,5.075C22.709,24.802,26.898,27.856,30.782,23.972z"/>
			<path fill="#FFFFFF" d="M47.201,41.539c-8.753-2.715-16.111-1.258-19.708-0.156l-3.627,8.731
				c-1.633,5.211,5.185,5.896,5.185,5.896h16.685c7.314-1.235,4.757-6.306,4.757-6.306L47.201,41.539z"/>
			<path fill="#004D40" d="M34.587,44.782c0,0.941-1.265,1.708-2.823,1.708c-1.559,0-2.82-0.766-2.82-1.708
				c0-0.945,1.261-1.708,2.82-1.708C33.323,43.074,34.587,43.837,34.587,44.782z"/>
			<path fill="#004D40" d="M44.628,44.782c0,0.941-1.265,1.708-2.819,1.708c-1.563,0-2.824-0.766-2.824-1.708
				c0-0.945,1.261-1.708,2.824-1.708C43.364,43.074,44.628,43.837,44.628,44.782z"/>
		</g>
	</g>
</g>
</svg>
