<?xml version="1.0" encoding="iso-8859-1"?>
<!-- Generator: Adobe Illustrator 16.0.0, SVG Export Plug-In . SVG Version: 6.00 Build 0)  -->
<!DOCTYPE svg PUBLIC "-//W3C//DTD SVG 1.1//EN" "http://www.w3.org/Graphics/SVG/1.1/DTD/svg11.dtd">
<svg version="1.1" id="Capa_1" xmlns="http://www.w3.org/2000/svg" xmlns:xlink="http://www.w3.org/1999/xlink" x="0px" y="0px"
	 width="474.521px" height="474.521px" viewBox="0 0 474.521 474.521" style="enable-background:new 0 0 474.521 474.521;"
	 xml:space="preserve">
<g>
	<g>
		<path d="M237.263,60.498c-4.65,3.535-68.417,50.977-150.197,67.352C76.285,316.566,237.161,414.269,237.263,414.213
			c0.102,0.056,160.979-97.646,150.198-286.368C305.676,111.475,237.263,60.498,237.263,60.498z"/>
		<path d="M440.632,97.439c-0.326-5.731-4.486-10.517-10.117-11.649C330.787,65.828,245.64,3.124,244.8,2.498
			c-4.505-3.357-10.69-3.33-15.167,0.08c-3.358,2.554-83.385,62.755-185.621,83.218c-5.633,1.127-9.791,5.918-10.121,11.65
			c-8.192,143.403,59.091,246.563,116.98,307.845c21.724,23.005,42.109,40.01,55.386,50.221
			c7.617,5.855,13.769,10.156,17.585,12.733c7.127,4.82,9.178,6.2,13.11,6.271c0.164,0.006,0.325,0.006,0.481,0.006
			c3.88,0,6.221-1.565,12.394-5.702c3.343-2.244,8.758-5.98,15.504-11.084c11.753-8.872,29.925-23.641,49.779-43.63
			c37.301-37.549,66.997-79.36,88.25-124.264C431.938,229.481,444.479,164.748,440.632,97.439z M330.16,359.379
			c-38.295,48.021-77.872,77.274-92.897,87.491c-15.022-10.217-54.599-39.464-92.909-87.514
			c-59.926-75.164-88.739-159.527-85.713-250.893c86.318-19.494,156.141-64.586,178.688-80.349
			c22.851,15.74,93.877,61.128,178.554,80.342C418.91,199.834,390.099,284.21,330.16,359.379z"/>
	</g>
</g>
<g>
</g>
<g>
</g>
<g>
</g>
<g>
</g>
<g>
</g>
<g>
</g>
<g>
</g>
<g>
</g>
<g>
</g>
<g>
</g>
<g>
</g>
<g>
</g>
<g>
</g>
<g>
</g>
<g>
</g>
</svg>
