<?xml version="1.0" encoding="UTF-8" standalone="no"?>
<!DOCTYPE svg PUBLIC "-//W3C//DTD SVG 1.1//EN"
 "http://www.w3.org/Graphics/SVG/1.1/DTD/svg11.dtd">
<!-- Generated by graphviz version 2.44.1 (20200629.0846)
 -->
<!-- Title: graphname Pages: 1 -->
<svg width="664pt" height="569pt"
 viewBox="0.00 0.00 664.00 569.00" xmlns="http://www.w3.org/2000/svg" xmlns:xlink="http://www.w3.org/1999/xlink">
<g id="graph0" class="graph" transform="scale(1 1) rotate(0) translate(4 565)">
<title>graphname</title>
<polygon fill="#fafafa" stroke="transparent" points="-4,4 -4,-565 660,-565 660,4 -4,4"/>
<text text-anchor="start" x="217" y="-536.4" font-family="Helvetica,sans-Serif" font-weight="bold" font-size="22.00" fill="#383838">Project grucloud&#45;aws</text>
<text text-anchor="start" x="217" y="-511.2" font-family="Helvetica,sans-Serif" font-weight="bold" font-size="16.00" fill="#707070">Target Diagram</text>
<g id="clust1" class="cluster">
<title>cluster_aws</title>
<polygon fill="#f5f5f5" stroke="#f5f5f5" points="8,-8 8,-489 648,-489 648,-8 8,-8"/>
<text text-anchor="start" x="266" y="-23" font-family="Helvetica,sans-Serif" font-weight="bold" font-size="20.00" fill="#707070">Provider aws</text>
</g>
<g id="clust2" class="cluster">
<title>cluster_aws_</title>
<polygon fill="#eeeeee" stroke="#eeeeee" points="16,-54 16,-481 640,-481 640,-54 16,-54"/>
<text text-anchor="start" x="327.86" y="-58.3" font-family="Helvetica,sans-Serif" font-size="1.00" fill="#383838"> </text>
</g>
<!-- KeyPair::starhackit -->
<g id="node1" class="node">
<title>KeyPair::starhackit</title>
<polygon fill="#e5e5e5" stroke="#dddddd" points="326,-377 232,-377 232,-319 326,-319 326,-377"/>
<text text-anchor="start" x="244" y="-357.2" font-family="Helvetica,sans-Serif" font-weight="bold" font-size="16.00" fill="#707070">KeyPair</text>
<text text-anchor="start" x="244" y="-332.2" font-family="Helvetica,sans-Serif" font-size="16.00" fill="#383838">starhackit</text>
</g>
<!-- Vpc::vpc -->
<g id="node2" class="node">
<title>Vpc::vpc</title>
<polygon fill="#e5e5e5" stroke="#dddddd" points="632,-371 578,-371 578,-313 632,-313 632,-371"/>
<text text-anchor="start" x="590" y="-351.2" font-family="Helvetica,sans-Serif" font-weight="bold" font-size="16.00" fill="#707070">Vpc</text>
<text text-anchor="start" x="590" y="-326.2" font-family="Helvetica,sans-Serif" font-size="16.00" fill="#383838">vpc</text>
</g>
<!-- InternetGateway::ig -->
<g id="node3" class="node">
<title>InternetGateway::ig</title>
<polygon fill="#e5e5e5" stroke="#dddddd" points="542,-467 392,-467 392,-409 542,-409 542,-467"/>
<text text-anchor="start" x="404" y="-447.2" font-family="Helvetica,sans-Serif" font-weight="bold" font-size="16.00" fill="#707070">InternetGateway</text>
<text text-anchor="start" x="404" y="-422.2" font-family="Helvetica,sans-Serif" font-size="16.00" fill="#383838">ig</text>
</g>
<!-- InternetGateway::ig&#45;&gt;Vpc::vpc -->
<g id="edge1" class="edge">
<title>InternetGateway::ig&#45;&gt;Vpc::vpc</title>
<path fill="none" stroke="#707070" d="M509.17,-408.94C528.39,-395.37 551.01,-379.41 569.33,-366.47"/>
<polygon fill="#707070" stroke="#707070" points="571.8,-369.01 577.95,-360.39 567.76,-363.29 571.8,-369.01"/>
</g>
<!-- Subnet::subnet -->
<g id="node4" class="node">
<title>Subnet::subnet</title>
<polygon fill="#e5e5e5" stroke="#dddddd" points="506.5,-335 427.5,-335 427.5,-277 506.5,-277 506.5,-335"/>
<text text-anchor="start" x="440" y="-315.2" font-family="Helvetica,sans-Serif" font-weight="bold" font-size="16.00" fill="#707070">Subnet</text>
<text text-anchor="start" x="440" y="-290.2" font-family="Helvetica,sans-Serif" font-size="16.00" fill="#383838">subnet</text>
</g>
<!-- Subnet::subnet&#45;&gt;Vpc::vpc -->
<g id="edge2" class="edge">
<title>Subnet::subnet&#45;&gt;Vpc::vpc</title>
<path fill="none" stroke="#707070" d="M506.61,-316.22C525.91,-321.33 549.13,-327.48 568.05,-332.48"/>
<polygon fill="#707070" stroke="#707070" points="567.23,-335.89 577.79,-335.06 569.02,-329.12 567.23,-335.89"/>
</g>
<!-- RouteTable::route&#45;table -->
<g id="node5" class="node">
<title>RouteTable::route&#45;table</title>
<polygon fill="#e5e5e5" stroke="#dddddd" points="334,-453 224,-453 224,-395 334,-395 334,-453"/>
<text text-anchor="start" x="236" y="-433.2" font-family="Helvetica,sans-Serif" font-weight="bold" font-size="16.00" fill="#707070">RouteTable</text>
<text text-anchor="start" x="236" y="-408.2" font-family="Helvetica,sans-Serif" font-size="16.00" fill="#383838">route&#45;table</text>
</g>
<!-- RouteTable::route&#45;table&#45;&gt;Vpc::vpc -->
<g id="edge3" class="edge">
<title>RouteTable::route&#45;table&#45;&gt;Vpc::vpc</title>
<path fill="none" stroke="#707070" d="M334.23,-410.28C400.54,-393.49 510.94,-365.55 567.76,-351.17"/>
<polygon fill="#707070" stroke="#707070" points="568.89,-354.5 577.72,-348.65 567.17,-347.71 568.89,-354.5"/>
</g>
<!-- RouteTable::route&#45;table&#45;&gt;Subnet::subnet -->
<g id="edge4" class="edge">
<title>RouteTable::route&#45;table&#45;&gt;Subnet::subnet</title>
<path fill="none" stroke="#707070" d="M334.16,-398.3C341.61,-394.37 349.07,-390.21 356,-386 378.07,-372.58 401.36,-356.03 420.8,-341.47"/>
<polygon fill="#707070" stroke="#707070" points="423.01,-344.18 428.88,-335.36 418.79,-338.6 423.01,-344.18"/>
</g>
<!-- Route::route&#45;ig -->
<g id="node6" class="node">
<title>Route::route&#45;ig</title>
<polygon fill="#e5e5e5" stroke="#dddddd" points="134.5,-463 55.5,-463 55.5,-405 134.5,-405 134.5,-463"/>
<text text-anchor="start" x="68" y="-443.2" font-family="Helvetica,sans-Serif" font-weight="bold" font-size="16.00" fill="#707070">Route</text>
<text text-anchor="start" x="68" y="-418.2" font-family="Helvetica,sans-Serif" font-size="16.00" fill="#383838">route&#45;ig</text>
</g>
<!-- Route::route&#45;ig&#45;&gt;InternetGateway::ig -->
<g id="edge6" class="edge">
<title>Route::route&#45;ig&#45;&gt;InternetGateway::ig</title>
<path fill="none" stroke="#707070" d="M134.78,-446.82C154.64,-452.72 179.35,-459.06 202,-462 269.87,-470.81 287.95,-469.34 356,-462 364.38,-461.1 373.06,-459.82 381.7,-458.31"/>
<polygon fill="#707070" stroke="#707070" points="382.6,-461.7 391.8,-456.45 381.33,-454.82 382.6,-461.7"/>
</g>
<!-- Route::route&#45;ig&#45;&gt;RouteTable::route&#45;table -->
<g id="edge5" class="edge">
<title>Route::route&#45;ig&#45;&gt;RouteTable::route&#45;table</title>
<path fill="none" stroke="#707070" d="M134.6,-431.88C157.53,-430.62 187.21,-428.99 213.61,-427.54"/>
<polygon fill="#707070" stroke="#707070" points="214.13,-431.01 223.93,-426.97 213.75,-424.03 214.13,-431.01"/>
</g>
<!-- SecurityGroup::securityGroup -->
<g id="node7" class="node">
<title>SecurityGroup::securityGroup</title>
<polygon fill="#e5e5e5" stroke="#dddddd" points="347,-281 211,-281 211,-223 347,-223 347,-281"/>
<text text-anchor="start" x="223" y="-261.2" font-family="Helvetica,sans-Serif" font-weight="bold" font-size="16.00" fill="#707070">SecurityGroup</text>
<text text-anchor="start" x="223" y="-236.2" font-family="Helvetica,sans-Serif" font-size="16.00" fill="#383838">securityGroup</text>
</g>
<!-- SecurityGroup::securityGroup&#45;&gt;Vpc::vpc -->
<g id="edge7" class="edge">
<title>SecurityGroup::securityGroup&#45;&gt;Vpc::vpc</title>
<path fill="none" stroke="#707070" d="M347,-242.05C402.3,-237.01 481.27,-237.37 542,-268 558.11,-276.13 571.63,-290.5 581.9,-304.44"/>
<polygon fill="#707070" stroke="#707070" points="579.28,-306.8 587.86,-313 585.02,-302.79 579.28,-306.8"/>
</g>
<!-- SecurityGroup::securityGroup&#45;&gt;Subnet::subnet -->
<g id="edge8" class="edge">
<title>SecurityGroup::securityGroup&#45;&gt;Subnet::subnet</title>
<path fill="none" stroke="#707070" d="M347.15,-271.5C370.42,-278.25 396.03,-285.69 417.5,-291.92"/>
<polygon fill="#707070" stroke="#707070" points="416.78,-295.36 427.36,-294.78 418.73,-288.63 416.78,-295.36"/>
</g>
<!-- ElasticIpAddress::ip -->
<g id="node8" class="node">
<title>ElasticIpAddress::ip</title>
<polygon fill="#e5e5e5" stroke="#dddddd" points="356,-205 202,-205 202,-147 356,-147 356,-205"/>
<text text-anchor="start" x="214" y="-185.2" font-family="Helvetica,sans-Serif" font-weight="bold" font-size="16.00" fill="#707070">ElasticIpAddress</text>
<text text-anchor="start" x="214" y="-160.2" font-family="Helvetica,sans-Serif" font-size="16.00" fill="#383838">ip</text>
</g>
<!-- EC2::server -->
<g id="node9" class="node">
<title>EC2::server</title>
<polygon fill="#e5e5e5" stroke="#dddddd" points="130,-305 60,-305 60,-247 130,-247 130,-305"/>
<text text-anchor="start" x="72" y="-285.2" font-family="Helvetica,sans-Serif" font-weight="bold" font-size="16.00" fill="#707070">EC2</text>
<text text-anchor="start" x="72" y="-260.2" font-family="Helvetica,sans-Serif" font-size="16.00" fill="#383838">server</text>
</g>
<!-- EC2::server&#45;&gt;KeyPair::starhackit -->
<g id="edge9" class="edge">
<title>EC2::server&#45;&gt;KeyPair::starhackit</title>
<path fill="none" stroke="#707070" d="M130.23,-289.54C156.16,-299.8 192.31,-314.1 222.37,-325.99"/>
<polygon fill="#707070" stroke="#707070" points="221.31,-329.34 231.9,-329.76 223.88,-322.83 221.31,-329.34"/>
</g>
<!-- EC2::server&#45;&gt;Subnet::subnet -->
<g id="edge10" class="edge">
<title>EC2::server&#45;&gt;Subnet::subnet</title>
<path fill="none" stroke="#707070" d="M130.3,-281.16C151.02,-284.11 177.98,-287.69 202,-290 276.99,-297.22 364.29,-301.75 417.32,-304.08"/>
<polygon fill="#707070" stroke="#707070" points="417.32,-307.59 427.46,-304.52 417.62,-300.59 417.32,-307.59"/>
</g>
<!-- EC2::server&#45;&gt;SecurityGroup::securityGroup -->
<g id="edge11" class="edge">
<title>EC2::server&#45;&gt;SecurityGroup::securityGroup</title>
<path fill="none" stroke="#707070" d="M130.23,-271.49C150.14,-268.86 176.09,-265.44 200.67,-262.2"/>
<polygon fill="#707070" stroke="#707070" points="201.28,-265.65 210.74,-260.87 200.37,-258.71 201.28,-265.65"/>
</g>
<!-- EC2::server&#45;&gt;ElasticIpAddress::ip -->
<g id="edge12" class="edge">
<title>EC2::server&#45;&gt;ElasticIpAddress::ip</title>
<path fill="none" stroke="#707070" d="M130.05,-255.32C150.68,-242.98 177.63,-227.2 202,-214 204.55,-212.62 207.16,-211.22 209.81,-209.82"/>
<polygon fill="#707070" stroke="#707070" points="211.64,-212.81 218.89,-205.08 208.4,-206.61 211.64,-212.81"/>
</g>
<!-- Route53Domain::starhack.it -->
<g id="node10" class="node">
<title>Route53Domain::starhack.it</title>
<polygon fill="#e5e5e5" stroke="#dddddd" points="540,-129 394,-129 394,-71 540,-71 540,-129"/>
<text text-anchor="start" x="406" y="-109.2" font-family="Helvetica,sans-Serif" font-weight="bold" font-size="16.00" fill="#707070">Route53Domain</text>
<text text-anchor="start" x="406" y="-84.2" font-family="Helvetica,sans-Serif" font-size="16.00" fill="#383838">starhack.it</text>
</g>
<!-- HostedZone::starhack.it. -->
<g id="node11" class="node">
<title>HostedZone::starhack.it.</title>
<polygon fill="#e5e5e5" stroke="#dddddd" points="337.5,-129 220.5,-129 220.5,-71 337.5,-71 337.5,-129"/>
<text text-anchor="start" x="233" y="-109.2" font-family="Helvetica,sans-Serif" font-weight="bold" font-size="16.00" fill="#707070">HostedZone</text>
<text text-anchor="start" x="233" y="-84.2" font-family="Helvetica,sans-Serif" font-size="16.00" fill="#383838">starhack.it.</text>
</g>
<!-- HostedZone::starhack.it.&#45;&gt;Route53Domain::starhack.it -->
<g id="edge13" class="edge">
<title>HostedZone::starhack.it.&#45;&gt;Route53Domain::starhack.it</title>
<path fill="none" stroke="#707070" d="M337.58,-100C352.19,-100 368.18,-100 383.76,-100"/>
<polygon fill="#707070" stroke="#707070" points="383.92,-103.5 393.92,-100 383.92,-96.5 383.92,-103.5"/>
</g>
<!-- Route53Record::starhack.it.&#45;ipv4 -->
<g id="node12" class="node">
<title>Route53Record::starhack.it.&#45;ipv4</title>
<polygon fill="#e5e5e5" stroke="#dddddd" points="166,-167 24,-167 24,-109 166,-109 166,-167"/>
<text text-anchor="start" x="36" y="-147.2" font-family="Helvetica,sans-Serif" font-weight="bold" font-size="16.00" fill="#707070">Route53Record</text>
<text text-anchor="start" x="36" y="-122.2" font-family="Helvetica,sans-Serif" font-size="16.00" fill="#383838">starhack.it.&#45;ipv4</text>
</g>
<!-- Route53Record::starhack.it.&#45;ipv4&#45;&gt;ElasticIpAddress::ip -->
<g id="edge15" class="edge">
<title>Route53Record::starhack.it.&#45;ipv4&#45;&gt;ElasticIpAddress::ip</title>
<path fill="none" stroke="#707070" d="M166.11,-152.64C174.53,-154.4 183.2,-156.21 191.82,-158.01"/>
<polygon fill="#707070" stroke="#707070" points="191.38,-161.49 201.88,-160.11 192.81,-154.64 191.38,-161.49"/>
</g>
<!-- Route53Record::starhack.it.&#45;ipv4&#45;&gt;HostedZone::starhack.it. -->
<g id="edge14" class="edge">
<title>Route53Record::starhack.it.&#45;ipv4&#45;&gt;HostedZone::starhack.it.</title>
<path fill="none" stroke="#707070" d="M166.11,-123.36C180.67,-120.32 195.99,-117.12 210.46,-114.1"/>
<polygon fill="#707070" stroke="#707070" points="211.25,-117.51 220.32,-112.04 209.81,-110.66 211.25,-117.51"/>
</g>
</g>
</svg>
