<?xml version="1.0" encoding="UTF-8" standalone="no"?>
<!DOCTYPE svg PUBLIC "-//W3C//DTD SVG 1.1//EN"
 "http://www.w3.org/Graphics/SVG/1.1/DTD/svg11.dtd">
<!-- Generated by graphviz version 2.44.1 (20200629.0846)
 -->
<!-- Title: graphname Pages: 1 -->
<svg width="749pt" height="605pt"
 viewBox="0.00 0.00 749.00 605.00" xmlns="http://www.w3.org/2000/svg" xmlns:xlink="http://www.w3.org/1999/xlink">
<g id="graph0" class="graph" transform="scale(1 1) rotate(0) translate(4 601)">
<title>graphname</title>
<polygon fill="#fafafa" stroke="transparent" points="-4,4 -4,-601 745,-601 745,4 -4,4"/>
<text text-anchor="start" x="259.5" y="-572.4" font-family="Helvetica,sans-Serif" font-weight="bold" font-size="22.00" fill="#383838">Project grucloud&#45;aws</text>
<text text-anchor="start" x="259.5" y="-547.2" font-family="Helvetica,sans-Serif" font-weight="bold" font-size="16.00" fill="#707070">Target Diagram</text>
<g id="clust1" class="cluster">
<title>cluster_aws</title>
<polygon fill="#f5f5f5" stroke="#f5f5f5" points="8,-8 8,-525 733,-525 733,-8 8,-8"/>
<text text-anchor="start" x="308.5" y="-23" font-family="Helvetica,sans-Serif" font-weight="bold" font-size="20.00" fill="#707070">Provider aws</text>
</g>
<g id="clust2" class="cluster">
<title>cluster_aws_</title>
<polygon fill="#eeeeee" stroke="#eeeeee" points="16,-54 16,-517 725,-517 725,-54 16,-54"/>
<text text-anchor="start" x="370.36" y="-58.3" font-family="Helvetica,sans-Serif" font-size="1.00" fill="#383838"> </text>
</g>
<!-- KeyPair::grucloud&#45;app -->
<g id="node1" class="node">
<title>KeyPair::grucloud&#45;app</title>
<polygon fill="#e5e5e5" stroke="#dddddd" points="423.5,-393 304.5,-393 304.5,-335 423.5,-335 423.5,-393"/>
<text text-anchor="start" x="317" y="-373.2" font-family="Helvetica,sans-Serif" font-weight="bold" font-size="16.00" fill="#707070">KeyPair</text>
<text text-anchor="start" x="317" y="-348.2" font-family="Helvetica,sans-Serif" font-size="16.00" fill="#383838">grucloud&#45;app</text>
</g>
<!-- Vpc::vpc -->
<g id="node2" class="node">
<title>Vpc::vpc</title>
<polygon fill="#e5e5e5" stroke="#dddddd" points="717,-437 663,-437 663,-379 717,-379 717,-437"/>
<text text-anchor="start" x="675" y="-417.2" font-family="Helvetica,sans-Serif" font-weight="bold" font-size="16.00" fill="#707070">Vpc</text>
<text text-anchor="start" x="675" y="-392.2" font-family="Helvetica,sans-Serif" font-size="16.00" fill="#383838">vpc</text>
</g>
<!-- InternetGateway::ig -->
<g id="node3" class="node">
<title>InternetGateway::ig</title>
<polygon fill="#e5e5e5" stroke="#dddddd" points="627,-509 477,-509 477,-451 627,-451 627,-509"/>
<text text-anchor="start" x="489" y="-489.2" font-family="Helvetica,sans-Serif" font-weight="bold" font-size="16.00" fill="#707070">InternetGateway</text>
<text text-anchor="start" x="489" y="-464.2" font-family="Helvetica,sans-Serif" font-size="16.00" fill="#383838">ig</text>
</g>
<!-- InternetGateway::ig&#45;&gt;Vpc::vpc -->
<g id="edge1" class="edge">
<title>InternetGateway::ig&#45;&gt;Vpc::vpc</title>
<path fill="none" stroke="#707070" d="M607.92,-450.92C623.53,-442.66 640.08,-433.9 654.14,-426.46"/>
<polygon fill="#707070" stroke="#707070" points="655.78,-429.55 662.98,-421.78 652.5,-423.36 655.78,-429.55"/>
</g>
<!-- Subnet::subnet -->
<g id="node4" class="node">
<title>Subnet::subnet</title>
<polygon fill="#e5e5e5" stroke="#dddddd" points="591.5,-413 512.5,-413 512.5,-355 591.5,-355 591.5,-413"/>
<text text-anchor="start" x="525" y="-393.2" font-family="Helvetica,sans-Serif" font-weight="bold" font-size="16.00" fill="#707070">Subnet</text>
<text text-anchor="start" x="525" y="-368.2" font-family="Helvetica,sans-Serif" font-size="16.00" fill="#383838">subnet</text>
</g>
<!-- Subnet::subnet&#45;&gt;Vpc::vpc -->
<g id="edge2" class="edge">
<title>Subnet::subnet&#45;&gt;Vpc::vpc</title>
<path fill="none" stroke="#707070" d="M591.61,-390.81C610.82,-394.2 633.92,-398.28 652.79,-401.61"/>
<polygon fill="#707070" stroke="#707070" points="652.34,-405.08 662.79,-403.38 653.55,-398.19 652.34,-405.08"/>
</g>
<!-- RouteTable::route&#45;table -->
<g id="node5" class="node">
<title>RouteTable::route&#45;table</title>
<polygon fill="#e5e5e5" stroke="#dddddd" points="419,-489 309,-489 309,-431 419,-431 419,-489"/>
<text text-anchor="start" x="321" y="-469.2" font-family="Helvetica,sans-Serif" font-weight="bold" font-size="16.00" fill="#707070">RouteTable</text>
<text text-anchor="start" x="321" y="-444.2" font-family="Helvetica,sans-Serif" font-size="16.00" fill="#383838">route&#45;table</text>
</g>
<!-- RouteTable::route&#45;table&#45;&gt;Vpc::vpc -->
<g id="edge3" class="edge">
<title>RouteTable::route&#45;table&#45;&gt;Vpc::vpc</title>
<path fill="none" stroke="#707070" d="M419.07,-451.01C437.44,-448.04 458.1,-444.78 477,-442 543.54,-432.22 560.8,-433.86 627,-422 635.42,-420.49 644.42,-418.61 652.88,-416.73"/>
<polygon fill="#707070" stroke="#707070" points="653.89,-420.09 662.86,-414.45 652.33,-413.26 653.89,-420.09"/>
</g>
<!-- RouteTable::route&#45;table&#45;&gt;Subnet::subnet -->
<g id="edge4" class="edge">
<title>RouteTable::route&#45;table&#45;&gt;Subnet::subnet</title>
<path fill="none" stroke="#707070" d="M419.05,-437.92C445.58,-427.07 477.28,-414.12 502.96,-403.63"/>
<polygon fill="#707070" stroke="#707070" points="504.55,-406.76 512.48,-399.74 501.9,-400.28 504.55,-406.76"/>
</g>
<!-- Route::route&#45;ig -->
<g id="node6" class="node">
<title>Route::route&#45;ig</title>
<polygon fill="#e5e5e5" stroke="#dddddd" points="177,-509 98,-509 98,-451 177,-451 177,-509"/>
<text text-anchor="start" x="110.5" y="-489.2" font-family="Helvetica,sans-Serif" font-weight="bold" font-size="16.00" fill="#707070">Route</text>
<text text-anchor="start" x="110.5" y="-464.2" font-family="Helvetica,sans-Serif" font-size="16.00" fill="#383838">route&#45;ig</text>
</g>
<!-- Route::route&#45;ig&#45;&gt;InternetGateway::ig -->
<g id="edge6" class="edge">
<title>Route::route&#45;ig&#45;&gt;InternetGateway::ig</title>
<path fill="none" stroke="#707070" d="M177.15,-485.98C207.06,-490.29 249.54,-495.74 287,-498 355.32,-502.13 372.78,-503.54 441,-498 449.39,-497.32 458.1,-496.35 466.78,-495.21"/>
<polygon fill="#707070" stroke="#707070" points="467.52,-498.64 476.94,-493.8 466.56,-491.71 467.52,-498.64"/>
</g>
<!-- Route::route&#45;ig&#45;&gt;RouteTable::route&#45;table -->
<g id="edge5" class="edge">
<title>Route::route&#45;ig&#45;&gt;RouteTable::route&#45;table</title>
<path fill="none" stroke="#707070" d="M177.09,-476.56C210.54,-473.58 259.6,-469.21 298.93,-465.71"/>
<polygon fill="#707070" stroke="#707070" points="299.31,-469.19 308.96,-464.81 298.69,-462.22 299.31,-469.19"/>
</g>
<!-- SecurityGroup::securityGroup -->
<g id="node7" class="node">
<title>SecurityGroup::securityGroup</title>
<polygon fill="#e5e5e5" stroke="#dddddd" points="432,-165 296,-165 296,-107 432,-107 432,-165"/>
<text text-anchor="start" x="308" y="-145.2" font-family="Helvetica,sans-Serif" font-weight="bold" font-size="16.00" fill="#707070">SecurityGroup</text>
<text text-anchor="start" x="308" y="-120.2" font-family="Helvetica,sans-Serif" font-size="16.00" fill="#383838">securityGroup</text>
</g>
<!-- SecurityGroup::securityGroup&#45;&gt;Vpc::vpc -->
<g id="edge7" class="edge">
<title>SecurityGroup::securityGroup&#45;&gt;Vpc::vpc</title>
<path fill="none" stroke="#707070" d="M426.84,-165.03C431.73,-167.89 436.51,-170.9 441,-174 526.73,-233.28 611.85,-321.72 656.65,-371.15"/>
<polygon fill="#707070" stroke="#707070" points="654.19,-373.66 663.48,-378.74 659.39,-368.97 654.19,-373.66"/>
</g>
<!-- SecurityGroup::securityGroup&#45;&gt;Subnet::subnet -->
<g id="edge8" class="edge">
<title>SecurityGroup::securityGroup&#45;&gt;Subnet::subnet</title>
<path fill="none" stroke="#707070" d="M430.36,-165.04C434.15,-167.81 437.74,-170.8 441,-174 442.7,-175.67 499.74,-285.27 530.99,-345.44"/>
<polygon fill="#707070" stroke="#707070" points="528.06,-347.39 535.77,-354.65 534.27,-344.16 528.06,-347.39"/>
</g>
<!-- SecurityGroupRuleIngress::sg&#45;rule&#45;ingress&#45;ssh -->
<g id="node8" class="node">
<title>SecurityGroupRuleIngress::sg&#45;rule&#45;ingress&#45;ssh</title>
<polygon fill="#e5e5e5" stroke="#dddddd" points="251,-205 24,-205 24,-147 251,-147 251,-205"/>
<text text-anchor="start" x="36.5" y="-185.2" font-family="Helvetica,sans-Serif" font-weight="bold" font-size="16.00" fill="#707070">SecurityGroupRuleIngress</text>
<text text-anchor="start" x="36.5" y="-160.2" font-family="Helvetica,sans-Serif" font-size="16.00" fill="#383838">sg&#45;rule&#45;ingress&#45;ssh</text>
</g>
<!-- SecurityGroupRuleIngress::sg&#45;rule&#45;ingress&#45;ssh&#45;&gt;SecurityGroup::securityGroup -->
<g id="edge9" class="edge">
<title>SecurityGroupRuleIngress::sg&#45;rule&#45;ingress&#45;ssh&#45;&gt;SecurityGroup::securityGroup</title>
<path fill="none" stroke="#707070" d="M251.08,-155.94C262.81,-153.85 274.53,-151.76 285.73,-149.77"/>
<polygon fill="#707070" stroke="#707070" points="286.63,-153.16 295.86,-147.96 285.4,-146.27 286.63,-153.16"/>
</g>
<!-- SecurityGroupRuleIngress::sg&#45;rule&#45;ingress&#45;http -->
<g id="node9" class="node">
<title>SecurityGroupRuleIngress::sg&#45;rule&#45;ingress&#45;http</title>
<polygon fill="#e5e5e5" stroke="#dddddd" points="251,-129 24,-129 24,-71 251,-71 251,-129"/>
<text text-anchor="start" x="36.5" y="-109.2" font-family="Helvetica,sans-Serif" font-weight="bold" font-size="16.00" fill="#707070">SecurityGroupRuleIngress</text>
<text text-anchor="start" x="36.5" y="-84.2" font-family="Helvetica,sans-Serif" font-size="16.00" fill="#383838">sg&#45;rule&#45;ingress&#45;http</text>
</g>
<!-- SecurityGroupRuleIngress::sg&#45;rule&#45;ingress&#45;http&#45;&gt;SecurityGroup::securityGroup -->
<g id="edge10" class="edge">
<title>SecurityGroupRuleIngress::sg&#45;rule&#45;ingress&#45;http&#45;&gt;SecurityGroup::securityGroup</title>
<path fill="none" stroke="#707070" d="M251.08,-118.05C262.81,-119.93 274.53,-121.81 285.73,-123.61"/>
<polygon fill="#707070" stroke="#707070" points="285.44,-127.11 295.86,-125.23 286.54,-120.19 285.44,-127.11"/>
</g>
<!-- SecurityGroupRuleIngress::sg&#45;rule&#45;ingress&#45;https -->
<g id="node10" class="node">
<title>SecurityGroupRuleIngress::sg&#45;rule&#45;ingress&#45;https</title>
<polygon fill="#e5e5e5" stroke="#dddddd" points="251,-357 24,-357 24,-299 251,-299 251,-357"/>
<text text-anchor="start" x="36.5" y="-337.2" font-family="Helvetica,sans-Serif" font-weight="bold" font-size="16.00" fill="#707070">SecurityGroupRuleIngress</text>
<text text-anchor="start" x="36.5" y="-312.2" font-family="Helvetica,sans-Serif" font-size="16.00" fill="#383838">sg&#45;rule&#45;ingress&#45;https</text>
</g>
<!-- SecurityGroupRuleIngress::sg&#45;rule&#45;ingress&#45;https&#45;&gt;SecurityGroup::securityGroup -->
<g id="edge11" class="edge">
<title>SecurityGroupRuleIngress::sg&#45;rule&#45;ingress&#45;https&#45;&gt;SecurityGroup::securityGroup</title>
<path fill="none" stroke="#707070" d="M240.71,-298.93C244.38,-296.22 247.83,-293.25 251,-290 288.69,-251.36 252.06,-215.15 287,-174 287.5,-173.41 288.01,-172.83 288.54,-172.25"/>
<polygon fill="#707070" stroke="#707070" points="291.07,-174.68 295.89,-165.24 286.24,-169.61 291.07,-174.68"/>
</g>
<!-- SecurityGroupRuleIngress::sg&#45;rule&#45;ingress&#45;icmp -->
<g id="node11" class="node">
<title>SecurityGroupRuleIngress::sg&#45;rule&#45;ingress&#45;icmp</title>
<polygon fill="#e5e5e5" stroke="#dddddd" points="251,-281 24,-281 24,-223 251,-223 251,-281"/>
<text text-anchor="start" x="36.5" y="-261.2" font-family="Helvetica,sans-Serif" font-weight="bold" font-size="16.00" fill="#707070">SecurityGroupRuleIngress</text>
<text text-anchor="start" x="36.5" y="-236.2" font-family="Helvetica,sans-Serif" font-size="16.00" fill="#383838">sg&#45;rule&#45;ingress&#45;icmp</text>
</g>
<!-- SecurityGroupRuleIngress::sg&#45;rule&#45;ingress&#45;icmp&#45;&gt;SecurityGroup::securityGroup -->
<g id="edge12" class="edge">
<title>SecurityGroupRuleIngress::sg&#45;rule&#45;ingress&#45;icmp&#45;&gt;SecurityGroup::securityGroup</title>
<path fill="none" stroke="#707070" d="M235.5,-222.96C240.88,-220.21 246.09,-217.23 251,-214 270.98,-200.86 267.97,-188.49 287,-174 288.41,-172.92 289.86,-171.87 291.34,-170.83"/>
<polygon fill="#707070" stroke="#707070" points="293.64,-173.5 300.06,-165.07 289.78,-167.66 293.64,-173.5"/>
</g>
<!-- ElasticIpAddress::ip -->
<g id="node12" class="node">
<title>ElasticIpAddress::ip</title>
<polygon fill="#e5e5e5" stroke="#dddddd" points="441,-241 287,-241 287,-183 441,-183 441,-241"/>
<text text-anchor="start" x="299" y="-221.2" font-family="Helvetica,sans-Serif" font-weight="bold" font-size="16.00" fill="#707070">ElasticIpAddress</text>
<text text-anchor="start" x="299" y="-196.2" font-family="Helvetica,sans-Serif" font-size="16.00" fill="#383838">ip</text>
</g>
<!-- Image::ubuntu 20.04 -->
<g id="node13" class="node">
<title>Image::ubuntu 20.04</title>
<polygon fill="#e5e5e5" stroke="#dddddd" points="423.5,-317 304.5,-317 304.5,-259 423.5,-259 423.5,-317"/>
<text text-anchor="start" x="317" y="-297.2" font-family="Helvetica,sans-Serif" font-weight="bold" font-size="16.00" fill="#707070">Image</text>
<text text-anchor="start" x="317" y="-272.2" font-family="Helvetica,sans-Serif" font-size="16.00" fill="#383838">ubuntu 20.04</text>
</g>
<!-- EC2::server -->
<g id="node14" class="node">
<title>EC2::server</title>
<polygon fill="#e5e5e5" stroke="#dddddd" points="172.5,-433 102.5,-433 102.5,-375 172.5,-375 172.5,-433"/>
<text text-anchor="start" x="114.5" y="-413.2" font-family="Helvetica,sans-Serif" font-weight="bold" font-size="16.00" fill="#707070">EC2</text>
<text text-anchor="start" x="114.5" y="-388.2" font-family="Helvetica,sans-Serif" font-size="16.00" fill="#383838">server</text>
</g>
<!-- EC2::server&#45;&gt;KeyPair::grucloud&#45;app -->
<g id="edge13" class="edge">
<title>EC2::server&#45;&gt;KeyPair::grucloud&#45;app</title>
<path fill="none" stroke="#707070" d="M172.6,-397.92C204.71,-392.2 253.77,-383.46 294.04,-376.29"/>
<polygon fill="#707070" stroke="#707070" points="294.85,-379.7 304.08,-374.5 293.62,-372.81 294.85,-379.7"/>
</g>
<!-- EC2::server&#45;&gt;Subnet::subnet -->
<g id="edge14" class="edge">
<title>EC2::server&#45;&gt;Subnet::subnet</title>
<path fill="none" stroke="#707070" d="M172.6,-405.5C228.7,-407.57 343.92,-410.21 441,-402 461.27,-400.29 483.44,-396.94 502.53,-393.6"/>
<polygon fill="#707070" stroke="#707070" points="503.27,-397.02 512.49,-391.81 502.03,-390.13 503.27,-397.02"/>
</g>
<!-- EC2::server&#45;&gt;SecurityGroup::securityGroup -->
<g id="edge15" class="edge">
<title>EC2::server&#45;&gt;SecurityGroup::securityGroup</title>
<path fill="none" stroke="#707070" d="M172.55,-401.49C197.91,-397.76 231.4,-388.57 251,-366 307.93,-300.45 234.72,-243.31 287,-174 287.56,-173.25 288.15,-172.52 288.75,-171.8"/>
<polygon fill="#707070" stroke="#707070" points="291.3,-174.19 295.78,-164.59 286.29,-169.3 291.3,-174.19"/>
</g>
<!-- EC2::server&#45;&gt;ElasticIpAddress::ip -->
<g id="edge16" class="edge">
<title>EC2::server&#45;&gt;ElasticIpAddress::ip</title>
<path fill="none" stroke="#707070" d="M172.61,-400.7C197.5,-396.55 230.34,-387.18 251,-366 288.69,-327.36 252.06,-291.15 287,-250 287.5,-249.41 288.01,-248.83 288.54,-248.25"/>
<polygon fill="#707070" stroke="#707070" points="291.07,-250.68 295.89,-241.24 286.24,-245.61 291.07,-250.68"/>
</g>
<!-- EC2::server&#45;&gt;Image::ubuntu 20.04 -->
<g id="edge17" class="edge">
<title>EC2::server&#45;&gt;Image::ubuntu 20.04</title>
<path fill="none" stroke="#707070" d="M172.52,-397.31C195.95,-391.6 227.06,-381.75 251,-366 270.98,-352.86 267.97,-340.49 287,-326 289.78,-323.88 292.7,-321.83 295.71,-319.85"/>
<polygon fill="#707070" stroke="#707070" points="297.73,-322.71 304.38,-314.46 294.04,-316.77 297.73,-322.71"/>
</g>
</g>
</svg>
