<?xml version="1.0" encoding="UTF-8" standalone="no"?>
<!DOCTYPE svg PUBLIC "-//W3C//DTD SVG 1.1//EN"
 "http://www.w3.org/Graphics/SVG/1.1/DTD/svg11.dtd">
<!-- Generated by graphviz version 2.44.1 (20200629.0846)
 -->
<!-- Title: graphname Pages: 1 -->
<svg width="878pt" height="1123pt"
 viewBox="0.00 0.00 878.00 1123.05" xmlns="http://www.w3.org/2000/svg" xmlns:xlink="http://www.w3.org/1999/xlink">
<g id="graph0" class="graph" transform="scale(1 1) rotate(0) translate(4 1119.05)">
<title>graphname</title>
<polygon fill="#fafafa" stroke="transparent" points="-4,4 -4,-1119.05 874,-1119.05 874,4 -4,4"/>
<text text-anchor="start" x="324" y="-1090.45" font-family="Helvetica,sans-Serif" font-weight="bold" font-size="22.00" fill="#383838">Project grucloud&#45;aws</text>
<text text-anchor="start" x="324" y="-1065.25" font-family="Helvetica,sans-Serif" font-weight="bold" font-size="16.00" fill="#707070">Live Diagram</text>
<g id="clust1" class="cluster">
<title>cluster_aws</title>
<polygon fill="#f5f5f5" stroke="#f5f5f5" points="8,-8 8,-1043 862,-1043 862,-8 8,-8"/>
<text text-anchor="start" x="373" y="-23" font-family="Helvetica,sans-Serif" font-weight="bold" font-size="20.00" fill="#707070">Provider aws</text>
</g>
<g id="clust2" class="cluster">
<title>cluster_aws_</title>
<polygon fill="#eeeeee" stroke="#eeeeee" points="16,-54 16,-1035 854,-1035 854,-54 16,-54"/>
<text text-anchor="start" x="434.86" y="-58.3" font-family="Helvetica,sans-Serif" font-size="1.00" fill="#383838"> </text>
</g>
<!-- KeyPair::::starhackit -->
<g id="node1" class="node">
<title>KeyPair::::starhackit</title>
<polygon fill="#e5e5e5" stroke="#dddddd" points="469,-245 375,-245 375,-187 469,-187 469,-245"/>
<text text-anchor="start" x="387" y="-225.2" font-family="Helvetica,sans-Serif" font-weight="bold" font-size="16.00" fill="#707070">KeyPair</text>
<text text-anchor="start" x="387" y="-200.2" font-family="Helvetica,sans-Serif" font-size="16.00" fill="#383838">starhackit</text>
</g>
<!-- NetworkAcl::::acl&#45;800933e8 -->
<g id="node2" class="node">
<title>NetworkAcl::::acl&#45;800933e8</title>
<polygon fill="#e5e5e5" stroke="#dddddd" points="216,-689 93,-689 93,-631 216,-631 216,-689"/>
<text text-anchor="start" x="105.5" y="-669.2" font-family="Helvetica,sans-Serif" font-weight="bold" font-size="16.00" fill="#707070">NetworkAcl</text>
<text text-anchor="start" x="105.5" y="-644.2" font-family="Helvetica,sans-Serif" font-size="16.00" fill="#383838">acl&#45;800933e8</text>
</g>
<!-- Vpc::::vpc&#45;e3f7af8b -->
<g id="node9" class="node">
<title>Vpc::::vpc&#45;e3f7af8b</title>
<polygon fill="#e5e5e5" stroke="#dddddd" points="694,-761 621,-761 621,-703 694,-703 694,-761"/>
<text text-anchor="start" x="633.5" y="-741.2" font-family="Helvetica,sans-Serif" font-weight="bold" font-size="16.00" fill="#707070">Vpc</text>
<text text-anchor="start" x="633.5" y="-716.2" font-family="Helvetica,sans-Serif" font-size="16.00" fill="#383838">default</text>
</g>
<!-- NetworkAcl::::acl&#45;800933e8&#45;&gt;Vpc::::vpc&#45;e3f7af8b -->
<g id="edge1" class="edge">
<title>NetworkAcl::::acl&#45;800933e8&#45;&gt;Vpc::::vpc&#45;e3f7af8b</title>
<path fill="none" stroke="#707070" d="M216.38,-665.34C316.94,-674.19 508.2,-691.23 523,-694 552.8,-699.57 585.55,-708.84 611.15,-716.83"/>
<polygon fill="#707070" stroke="#707070" points="610.36,-720.25 620.95,-719.94 612.47,-713.58 610.36,-720.25"/>
</g>
<!-- Subnet::::subnet&#45;b97a57d0 -->
<g id="node14" class="node">
<title>Subnet::::subnet&#45;b97a57d0</title>
<polygon fill="#e5e5e5" stroke="#dddddd" points="461.5,-761 382.5,-761 382.5,-703 461.5,-703 461.5,-761"/>
<text text-anchor="start" x="395" y="-741.2" font-family="Helvetica,sans-Serif" font-weight="bold" font-size="16.00" fill="#707070">Subnet</text>
<text text-anchor="start" x="395" y="-716.2" font-family="Helvetica,sans-Serif" font-size="16.00" fill="#383838">default</text>
</g>
<!-- NetworkAcl::::acl&#45;800933e8&#45;&gt;Subnet::::subnet&#45;b97a57d0 -->
<g id="edge3" class="edge">
<title>NetworkAcl::::acl&#45;800933e8&#45;&gt;Subnet::::subnet&#45;b97a57d0</title>
<path fill="none" stroke="#707070" d="M216.08,-676.43C263.5,-689.29 328.58,-706.94 372.57,-718.87"/>
<polygon fill="#707070" stroke="#707070" points="371.89,-722.31 382.45,-721.55 373.72,-715.55 371.89,-722.31"/>
</g>
<!-- Subnet::::subnet&#45;a3c6a8d9 -->
<g id="node15" class="node">
<title>Subnet::::subnet&#45;a3c6a8d9</title>
<polygon fill="#e5e5e5" stroke="#dddddd" points="461.5,-589 382.5,-589 382.5,-531 461.5,-531 461.5,-589"/>
<text text-anchor="start" x="395" y="-569.2" font-family="Helvetica,sans-Serif" font-weight="bold" font-size="16.00" fill="#707070">Subnet</text>
<text text-anchor="start" x="395" y="-544.2" font-family="Helvetica,sans-Serif" font-size="16.00" fill="#383838">default</text>
</g>
<!-- NetworkAcl::::acl&#45;800933e8&#45;&gt;Subnet::::subnet&#45;a3c6a8d9 -->
<g id="edge4" class="edge">
<title>NetworkAcl::::acl&#45;800933e8&#45;&gt;Subnet::::subnet&#45;a3c6a8d9</title>
<path fill="none" stroke="#707070" d="M216.08,-637.18C263.6,-619.28 328.85,-594.71 372.85,-578.13"/>
<polygon fill="#707070" stroke="#707070" points="374.33,-581.32 382.45,-574.52 371.86,-574.77 374.33,-581.32"/>
</g>
<!-- Subnet::::subnet&#45;ac73cfe0 -->
<g id="node16" class="node">
<title>Subnet::::subnet&#45;ac73cfe0</title>
<polygon fill="#e5e5e5" stroke="#dddddd" points="461.5,-665 382.5,-665 382.5,-607 461.5,-607 461.5,-665"/>
<text text-anchor="start" x="395" y="-645.2" font-family="Helvetica,sans-Serif" font-weight="bold" font-size="16.00" fill="#707070">Subnet</text>
<text text-anchor="start" x="395" y="-620.2" font-family="Helvetica,sans-Serif" font-size="16.00" fill="#383838">default</text>
</g>
<!-- NetworkAcl::::acl&#45;800933e8&#45;&gt;Subnet::::subnet&#45;ac73cfe0 -->
<g id="edge2" class="edge">
<title>NetworkAcl::::acl&#45;800933e8&#45;&gt;Subnet::::subnet&#45;ac73cfe0</title>
<path fill="none" stroke="#707070" d="M216.08,-654.52C263.4,-650.25 328.31,-644.38 372.3,-640.4"/>
<polygon fill="#707070" stroke="#707070" points="372.81,-643.87 382.45,-639.48 372.18,-636.9 372.81,-643.87"/>
</g>
<!-- NetworkAcl::::acl&#45;020605ec1ec061e15 -->
<g id="node3" class="node">
<title>NetworkAcl::::acl&#45;020605ec1ec061e15</title>
<polygon fill="#e5e5e5" stroke="#dddddd" points="523,-397 321,-397 321,-339 523,-339 523,-397"/>
<text text-anchor="start" x="333" y="-377.2" font-family="Helvetica,sans-Serif" font-weight="bold" font-size="16.00" fill="#707070">NetworkAcl</text>
<text text-anchor="start" x="333" y="-352.2" font-family="Helvetica,sans-Serif" font-size="16.00" fill="#383838">acl&#45;020605ec1ec061e15</text>
</g>
<!-- Vpc::::vpc&#45;08d3c90a56647aac5 -->
<g id="node8" class="node">
<title>Vpc::::vpc&#45;08d3c90a56647aac5</title>
<polygon fill="#e5e5e5" stroke="#dddddd" points="846,-397 792,-397 792,-339 846,-339 846,-397"/>
<text text-anchor="start" x="804" y="-377.2" font-family="Helvetica,sans-Serif" font-weight="bold" font-size="16.00" fill="#707070">Vpc</text>
<text text-anchor="start" x="804" y="-352.2" font-family="Helvetica,sans-Serif" font-size="16.00" fill="#383838">vpc</text>
</g>
<!-- NetworkAcl::::acl&#45;020605ec1ec061e15&#45;&gt;Vpc::::vpc&#45;08d3c90a56647aac5 -->
<g id="edge5" class="edge">
<title>NetworkAcl::::acl&#45;020605ec1ec061e15&#45;&gt;Vpc::::vpc&#45;08d3c90a56647aac5</title>
<path fill="none" stroke="#707070" d="M523.22,-363.61C589.34,-361.43 677.86,-359.85 756,-363 764.36,-363.34 773.34,-363.93 781.8,-364.59"/>
<polygon fill="#707070" stroke="#707070" points="781.53,-368.08 791.78,-365.42 782.11,-361.1 781.53,-368.08"/>
</g>
<!-- Subnet::::subnet&#45;065a08ebdf0608e49 -->
<g id="node13" class="node">
<title>Subnet::::subnet&#45;065a08ebdf0608e49</title>
<polygon fill="#e5e5e5" stroke="#dddddd" points="697,-291 618,-291 618,-233 697,-233 697,-291"/>
<text text-anchor="start" x="630.5" y="-271.2" font-family="Helvetica,sans-Serif" font-weight="bold" font-size="16.00" fill="#707070">Subnet</text>
<text text-anchor="start" x="630.5" y="-246.2" font-family="Helvetica,sans-Serif" font-size="16.00" fill="#383838">subnet</text>
</g>
<!-- NetworkAcl::::acl&#45;020605ec1ec061e15&#45;&gt;Subnet::::subnet&#45;065a08ebdf0608e49 -->
<g id="edge6" class="edge">
<title>NetworkAcl::::acl&#45;020605ec1ec061e15&#45;&gt;Subnet::::subnet&#45;065a08ebdf0608e49</title>
<path fill="none" stroke="#707070" d="M501.93,-338.92C509.1,-336.01 516.21,-333.01 523,-330 552.02,-317.14 583.7,-301.09 608.92,-287.82"/>
<polygon fill="#707070" stroke="#707070" points="610.7,-290.83 617.9,-283.06 607.42,-284.65 610.7,-290.83"/>
</g>
<!-- Volume::::vol&#45;03e2f8c19749793bf -->
<g id="node4" class="node">
<title>Volume::::vol&#45;03e2f8c19749793bf</title>
<polygon fill="#e5e5e5" stroke="#dddddd" points="519,-321 325,-321 325,-263 519,-263 519,-321"/>
<text text-anchor="start" x="337" y="-301.2" font-family="Helvetica,sans-Serif" font-weight="bold" font-size="16.00" fill="#707070">Volume</text>
<text text-anchor="start" x="337" y="-276.2" font-family="Helvetica,sans-Serif" font-size="16.00" fill="#383838">vol&#45;03e2f8c19749793bf</text>
</g>
<!-- Route53Domain::::starhack.it -->
<g id="node5" class="node">
<title>Route53Domain::::starhack.it</title>
<polygon fill="#e5e5e5" stroke="#dddddd" points="227.5,-951 81.5,-951 81.5,-893 227.5,-893 227.5,-951"/>
<text text-anchor="start" x="93.5" y="-931.2" font-family="Helvetica,sans-Serif" font-weight="bold" font-size="16.00" fill="#707070">Route53Domain</text>
<text text-anchor="start" x="93.5" y="-906.2" font-family="Helvetica,sans-Serif" font-size="16.00" fill="#383838">starhack.it</text>
</g>
<!-- IamRole::::arn:aws:iam::594073614517:role/OrganizationAccountAccessRole -->
<g id="node6" class="node">
<title>IamRole::::arn:aws:iam::594073614517:role/OrganizationAccountAccessRole</title>
<polygon fill="#e5e5e5" stroke="#dddddd" points="285,-875 24,-875 24,-817 285,-817 285,-875"/>
<text text-anchor="start" x="36.5" y="-855.2" font-family="Helvetica,sans-Serif" font-weight="bold" font-size="16.00" fill="#707070">IamRole</text>
<text text-anchor="start" x="36.5" y="-830.2" font-family="Helvetica,sans-Serif" font-size="16.00" fill="#383838">OrganizationAccountAccessRole</text>
</g>
<!-- HostedZone::::/hostedzone/Z09429703J0B6XPB98IZ9 -->
<g id="node7" class="node">
<title>HostedZone::::/hostedzone/Z09429703J0B6XPB98IZ9</title>
<polygon fill="#e5e5e5" stroke="#dddddd" points="480.5,-837 363.5,-837 363.5,-779 480.5,-779 480.5,-837"/>
<text text-anchor="start" x="376" y="-817.2" font-family="Helvetica,sans-Serif" font-weight="bold" font-size="16.00" fill="#707070">HostedZone</text>
<text text-anchor="start" x="376" y="-792.2" font-family="Helvetica,sans-Serif" font-size="16.00" fill="#383838">starhack.it.</text>
</g>
<!-- Route53Record::::A::starhack.it. -->
<g id="node10" class="node">
<title>Route53Record::::A::starhack.it.</title>
<polygon fill="#e5e5e5" stroke="#dddddd" points="225.5,-799 83.5,-799 83.5,-741 225.5,-741 225.5,-799"/>
<text text-anchor="start" x="95.5" y="-779.2" font-family="Helvetica,sans-Serif" font-weight="bold" font-size="16.00" fill="#707070">Route53Record</text>
<text text-anchor="start" x="95.5" y="-754.2" font-family="Helvetica,sans-Serif" font-size="16.00" fill="#383838">starhack.it.&#45;ipv4</text>
</g>
<!-- Route53Record::::A::starhack.it.&#45;&gt;HostedZone::::/hostedzone/Z09429703J0B6XPB98IZ9 -->
<g id="edge10" class="edge">
<title>Route53Record::::A::starhack.it.&#45;&gt;HostedZone::::/hostedzone/Z09429703J0B6XPB98IZ9</title>
<path fill="none" stroke="#707070" d="M225.6,-780.03C265.09,-785.69 314.18,-792.71 353.27,-798.31"/>
<polygon fill="#707070" stroke="#707070" points="353.1,-801.82 363.5,-799.77 354.09,-794.89 353.1,-801.82"/>
</g>
<!-- InternetGateway::::igw&#45;050800077bb1e3e11 -->
<g id="node11" class="node">
<title>InternetGateway::::igw&#45;050800077bb1e3e11</title>
<polygon fill="#e5e5e5" stroke="#dddddd" points="732.5,-635 582.5,-635 582.5,-577 732.5,-577 732.5,-635"/>
<text text-anchor="start" x="594.5" y="-615.2" font-family="Helvetica,sans-Serif" font-weight="bold" font-size="16.00" fill="#707070">InternetGateway</text>
<text text-anchor="start" x="594.5" y="-590.2" font-family="Helvetica,sans-Serif" font-size="16.00" fill="#383838">ig</text>
</g>
<!-- InternetGateway::::igw&#45;050800077bb1e3e11&#45;&gt;Vpc::::vpc&#45;08d3c90a56647aac5 -->
<g id="edge11" class="edge">
<title>InternetGateway::::igw&#45;050800077bb1e3e11&#45;&gt;Vpc::::vpc&#45;08d3c90a56647aac5</title>
<path fill="none" stroke="#707070" d="M732.81,-585.5C741.41,-580.8 749.44,-575.05 756,-568 797.52,-523.42 811.25,-451.51 815.78,-407.15"/>
<polygon fill="#707070" stroke="#707070" points="819.28,-407.32 816.7,-397.04 812.31,-406.68 819.28,-407.32"/>
</g>
<!-- InternetGateway::::igw&#45;05985a6d -->
<g id="node12" class="node">
<title>InternetGateway::::igw&#45;05985a6d</title>
<polygon fill="#e5e5e5" stroke="#dddddd" points="497,-913 347,-913 347,-855 497,-855 497,-913"/>
<text text-anchor="start" x="359" y="-893.2" font-family="Helvetica,sans-Serif" font-weight="bold" font-size="16.00" fill="#707070">InternetGateway</text>
<text text-anchor="start" x="359" y="-868.2" font-family="Helvetica,sans-Serif" font-size="16.00" fill="#383838">igw&#45;05985a6d</text>
</g>
<!-- InternetGateway::::igw&#45;05985a6d&#45;&gt;Vpc::::vpc&#45;e3f7af8b -->
<g id="edge12" class="edge">
<title>InternetGateway::::igw&#45;05985a6d&#45;&gt;Vpc::::vpc&#45;e3f7af8b</title>
<path fill="none" stroke="#707070" d="M497.26,-859.1C506.15,-855.16 514.93,-850.78 523,-846 559.27,-824.5 595.33,-792.95 620.81,-768.48"/>
<polygon fill="#707070" stroke="#707070" points="623.3,-770.94 628.04,-761.46 618.42,-765.92 623.3,-770.94"/>
</g>
<!-- Subnet::::subnet&#45;065a08ebdf0608e49&#45;&gt;Vpc::::vpc&#45;08d3c90a56647aac5 -->
<g id="edge13" class="edge">
<title>Subnet::::subnet&#45;065a08ebdf0608e49&#45;&gt;Vpc::::vpc&#45;08d3c90a56647aac5</title>
<path fill="none" stroke="#707070" d="M697.11,-287.66C723.34,-305.09 757.74,-327.95 783.13,-344.83"/>
<polygon fill="#707070" stroke="#707070" points="781.45,-347.91 791.71,-350.53 785.32,-342.08 781.45,-347.91"/>
</g>
<!-- Subnet::::subnet&#45;b97a57d0&#45;&gt;Vpc::::vpc&#45;e3f7af8b -->
<g id="edge14" class="edge">
<title>Subnet::::subnet&#45;b97a57d0&#45;&gt;Vpc::::vpc&#45;e3f7af8b</title>
<path fill="none" stroke="#707070" d="M461.56,-732C502.57,-732 567.41,-732 610.92,-732"/>
<polygon fill="#707070" stroke="#707070" points="610.95,-735.5 620.95,-732 610.95,-728.5 610.95,-735.5"/>
</g>
<!-- Subnet::::subnet&#45;a3c6a8d9&#45;&gt;Vpc::::vpc&#45;e3f7af8b -->
<g id="edge15" class="edge">
<title>Subnet::::subnet&#45;a3c6a8d9&#45;&gt;Vpc::::vpc&#45;e3f7af8b</title>
<path fill="none" stroke="#707070" d="M461.52,-569.29C481.19,-575.3 504.76,-584.56 523,-598 543.9,-613.4 541.3,-625.01 559,-644 575.85,-662.08 595.92,-680.63 613.45,-696"/>
<polygon fill="#707070" stroke="#707070" points="611.46,-698.91 621.3,-702.83 616.05,-693.63 611.46,-698.91"/>
</g>
<!-- Subnet::::subnet&#45;ac73cfe0&#45;&gt;Vpc::::vpc&#45;e3f7af8b -->
<g id="edge16" class="edge">
<title>Subnet::::subnet&#45;ac73cfe0&#45;&gt;Vpc::::vpc&#45;e3f7af8b</title>
<path fill="none" stroke="#707070" d="M461.56,-651.85C502.74,-668.79 567.95,-695.6 611.47,-713.49"/>
<polygon fill="#707070" stroke="#707070" points="610.37,-716.82 620.95,-717.38 613.03,-710.34 610.37,-716.82"/>
</g>
<!-- RouteTable::::rtb&#45;0f02ad53b1ce580ed -->
<g id="node17" class="node">
<title>RouteTable::::rtb&#45;0f02ad53b1ce580ed</title>
<polygon fill="#e5e5e5" stroke="#dddddd" points="477,-493 367,-493 367,-435 477,-435 477,-493"/>
<text text-anchor="start" x="379" y="-473.2" font-family="Helvetica,sans-Serif" font-weight="bold" font-size="16.00" fill="#707070">RouteTable</text>
<text text-anchor="start" x="379" y="-448.2" font-family="Helvetica,sans-Serif" font-size="16.00" fill="#383838">route&#45;table</text>
</g>
<!-- RouteTable::::rtb&#45;0f02ad53b1ce580ed&#45;&gt;Vpc::::vpc&#45;08d3c90a56647aac5 -->
<g id="edge22" class="edge">
<title>RouteTable::::rtb&#45;0f02ad53b1ce580ed&#45;&gt;Vpc::::vpc&#45;08d3c90a56647aac5</title>
<path fill="none" stroke="#707070" d="M477.05,-468.06C558.77,-473.25 709.19,-478.85 756,-454 775.52,-443.64 790.37,-424.08 800.63,-406.23"/>
<polygon fill="#707070" stroke="#707070" points="803.89,-407.56 805.58,-397.1 797.74,-404.22 803.89,-407.56"/>
</g>
<!-- RouteTable::::rtb&#45;0f02ad53b1ce580ed&#45;&gt;InternetGateway::::igw&#45;050800077bb1e3e11 -->
<g id="edge23" class="edge">
<title>RouteTable::::rtb&#45;0f02ad53b1ce580ed&#45;&gt;InternetGateway::::igw&#45;050800077bb1e3e11</title>
<path fill="none" stroke="#707070" d="M477.21,-480.08C493.18,-486.63 509.88,-495.45 523,-507 546.63,-527.8 535.02,-547.61 559,-568 563.43,-571.77 568.28,-575.19 573.38,-578.29"/>
<polygon fill="#707070" stroke="#707070" points="571.71,-581.37 582.15,-583.21 575.14,-575.27 571.71,-581.37"/>
</g>
<!-- RouteTable::::rtb&#45;766b7f1e -->
<g id="node18" class="node">
<title>RouteTable::::rtb&#45;766b7f1e</title>
<polygon fill="#e5e5e5" stroke="#dddddd" points="212.5,-1027 96.5,-1027 96.5,-969 212.5,-969 212.5,-1027"/>
<text text-anchor="start" x="108.5" y="-1007.2" font-family="Helvetica,sans-Serif" font-weight="bold" font-size="16.00" fill="#707070">RouteTable</text>
<text text-anchor="start" x="108.5" y="-982.2" font-family="Helvetica,sans-Serif" font-size="16.00" fill="#383838">rtb&#45;766b7f1e</text>
</g>
<!-- RouteTable::::rtb&#45;766b7f1e&#45;&gt;Vpc::::vpc&#45;e3f7af8b -->
<g id="edge24" class="edge">
<title>RouteTable::::rtb&#45;766b7f1e&#45;&gt;Vpc::::vpc&#45;e3f7af8b</title>
<path fill="none" stroke="#707070" d="M212.6,-1019.72C289.59,-1045.07 427.95,-1076.35 523,-1016 608.83,-961.51 640.47,-835.55 651.31,-771.27"/>
<polygon fill="#707070" stroke="#707070" points="654.81,-771.56 652.93,-761.13 647.9,-770.46 654.81,-771.56"/>
</g>
<!-- RouteTable::::rtb&#45;766b7f1e&#45;&gt;InternetGateway::::igw&#45;05985a6d -->
<g id="edge25" class="edge">
<title>RouteTable::::rtb&#45;766b7f1e&#45;&gt;InternetGateway::::igw&#45;05985a6d</title>
<path fill="none" stroke="#707070" d="M212.69,-988.06C236.26,-982.27 263.11,-973.39 285,-960 304.85,-947.86 301.64,-934.9 321,-922 326.22,-918.52 331.81,-915.3 337.57,-912.32"/>
<polygon fill="#707070" stroke="#707070" points="339.29,-915.38 346.75,-907.85 336.23,-909.08 339.29,-915.38"/>
</g>
<!-- RouteTable::::rtb&#45;0b4e1fe4d59b26280 -->
<g id="node19" class="node">
<title>RouteTable::::rtb&#45;0b4e1fe4d59b26280</title>
<polygon fill="#e5e5e5" stroke="#dddddd" points="756,-445 559,-445 559,-387 756,-387 756,-445"/>
<text text-anchor="start" x="571.5" y="-425.2" font-family="Helvetica,sans-Serif" font-weight="bold" font-size="16.00" fill="#707070">RouteTable</text>
<text text-anchor="start" x="571.5" y="-400.2" font-family="Helvetica,sans-Serif" font-size="16.00" fill="#383838">rtb&#45;0b4e1fe4d59b26280</text>
</g>
<!-- RouteTable::::rtb&#45;0b4e1fe4d59b26280&#45;&gt;Vpc::::vpc&#45;08d3c90a56647aac5 -->
<g id="edge26" class="edge">
<title>RouteTable::::rtb&#45;0b4e1fe4d59b26280&#45;&gt;Vpc::::vpc&#45;08d3c90a56647aac5</title>
<path fill="none" stroke="#707070" d="M754.96,-386.97C764.57,-384.08 773.84,-381.29 782.18,-378.78"/>
<polygon fill="#707070" stroke="#707070" points="783.28,-382.1 791.85,-375.87 781.26,-375.4 783.28,-382.1"/>
</g>
<!-- ElasticIpAddress::::eipalloc&#45;0a406753a39b64fcc -->
<g id="node20" class="node">
<title>ElasticIpAddress::::eipalloc&#45;0a406753a39b64fcc</title>
<polygon fill="#e5e5e5" stroke="#dddddd" points="231.5,-129 77.5,-129 77.5,-71 231.5,-71 231.5,-129"/>
<text text-anchor="start" x="89.5" y="-109.2" font-family="Helvetica,sans-Serif" font-weight="bold" font-size="16.00" fill="#707070">ElasticIpAddress</text>
<text text-anchor="start" x="89.5" y="-84.2" font-family="Helvetica,sans-Serif" font-size="16.00" fill="#383838">ip</text>
</g>
<!-- NetworkInterface::::eni&#45;0a9e0f678b85703d2 -->
<g id="node23" class="node">
<title>NetworkInterface::::eni&#45;0a9e0f678b85703d2</title>
<polygon fill="#e5e5e5" stroke="#dddddd" points="522,-129 322,-129 322,-71 522,-71 522,-129"/>
<text text-anchor="start" x="334" y="-109.2" font-family="Helvetica,sans-Serif" font-weight="bold" font-size="16.00" fill="#707070">NetworkInterface</text>
<text text-anchor="start" x="334" y="-84.2" font-family="Helvetica,sans-Serif" font-size="16.00" fill="#383838">eni&#45;0a9e0f678b85703d2</text>
</g>
<!-- ElasticIpAddress::::eipalloc&#45;0a406753a39b64fcc&#45;&gt;NetworkInterface::::eni&#45;0a9e0f678b85703d2 -->
<g id="edge27" class="edge">
<title>ElasticIpAddress::::eipalloc&#45;0a406753a39b64fcc&#45;&gt;NetworkInterface::::eni&#45;0a9e0f678b85703d2</title>
<path fill="none" stroke="#707070" d="M231.58,-100C256.45,-100 284.58,-100 311.41,-100"/>
<polygon fill="#707070" stroke="#707070" points="311.61,-103.5 321.61,-100 311.61,-96.5 311.61,-103.5"/>
</g>
<!-- Route::::route&#45;ig -->
<g id="node21" class="node">
<title>Route::::route&#45;ig</title>
<polygon fill="#e5e5e5" stroke="#dddddd" points="194,-517 115,-517 115,-459 194,-459 194,-517"/>
<text text-anchor="start" x="127.5" y="-497.2" font-family="Helvetica,sans-Serif" font-weight="bold" font-size="16.00" fill="#707070">Route</text>
<text text-anchor="start" x="127.5" y="-472.2" font-family="Helvetica,sans-Serif" font-size="16.00" fill="#383838">route&#45;ig</text>
</g>
<!-- Route::::route&#45;ig&#45;&gt;InternetGateway::::igw&#45;050800077bb1e3e11 -->
<g id="edge29" class="edge">
<title>Route::::route&#45;ig&#45;&gt;InternetGateway::::igw&#45;050800077bb1e3e11</title>
<path fill="none" stroke="#707070" d="M194.04,-491.37C287.61,-499.56 519.41,-520.04 523,-522 545.79,-534.44 538.16,-552.51 559,-568 563.47,-571.32 568.26,-574.39 573.23,-577.22"/>
<polygon fill="#707070" stroke="#707070" points="571.89,-580.47 582.36,-582.06 575.17,-574.28 571.89,-580.47"/>
</g>
<!-- Route::::route&#45;ig&#45;&gt;RouteTable::::rtb&#45;0f02ad53b1ce580ed -->
<g id="edge28" class="edge">
<title>Route::::route&#45;ig&#45;&gt;RouteTable::::rtb&#45;0f02ad53b1ce580ed</title>
<path fill="none" stroke="#707070" d="M194.11,-484.51C236.62,-480.67 305.69,-474.42 356.47,-469.83"/>
<polygon fill="#707070" stroke="#707070" points="357.04,-473.3 366.69,-468.91 356.41,-466.32 357.04,-473.3"/>
</g>
<!-- EC2::::i&#45;04fd5074ea610658f -->
<g id="node22" class="node">
<title>EC2::::i&#45;04fd5074ea610658f</title>
<polygon fill="#e5e5e5" stroke="#dddddd" points="189.5,-225 119.5,-225 119.5,-167 189.5,-167 189.5,-225"/>
<text text-anchor="start" x="131.5" y="-205.2" font-family="Helvetica,sans-Serif" font-weight="bold" font-size="16.00" fill="#707070">EC2</text>
<text text-anchor="start" x="131.5" y="-180.2" font-family="Helvetica,sans-Serif" font-size="16.00" fill="#383838">server</text>
</g>
<!-- EC2::::i&#45;04fd5074ea610658f&#45;&gt;KeyPair::::starhackit -->
<g id="edge30" class="edge">
<title>EC2::::i&#45;04fd5074ea610658f&#45;&gt;KeyPair::::starhackit</title>
<path fill="none" stroke="#707070" d="M189.67,-198.57C233.91,-201.91 311.64,-207.76 364.68,-211.76"/>
<polygon fill="#707070" stroke="#707070" points="364.7,-215.27 374.94,-212.53 365.23,-208.29 364.7,-215.27"/>
</g>
<!-- EC2::::i&#45;04fd5074ea610658f&#45;&gt;Volume::::vol&#45;03e2f8c19749793bf -->
<g id="edge33" class="edge">
<title>EC2::::i&#45;04fd5074ea610658f&#45;&gt;Volume::::vol&#45;03e2f8c19749793bf</title>
<path fill="none" stroke="#707070" d="M189.67,-208.35C225.25,-221.22 282.48,-241.91 331.11,-259.5"/>
<polygon fill="#707070" stroke="#707070" points="330.12,-262.86 340.72,-262.97 332.5,-256.28 330.12,-262.86"/>
</g>
<!-- EC2::::i&#45;04fd5074ea610658f&#45;&gt;Vpc::::vpc&#45;08d3c90a56647aac5 -->
<g id="edge31" class="edge">
<title>EC2::::i&#45;04fd5074ea610658f&#45;&gt;Vpc::::vpc&#45;08d3c90a56647aac5</title>
<path fill="none" stroke="#707070" d="M168.07,-225.29C190.59,-273.52 242.9,-368.11 321,-406 361.39,-425.59 480.54,-420.57 523,-406 542.17,-399.42 539.96,-384.95 559,-378 598.86,-363.46 720.55,-364.91 781.87,-366.69"/>
<polygon fill="#707070" stroke="#707070" points="781.78,-370.19 791.88,-367 782,-363.19 781.78,-370.19"/>
</g>
<!-- EC2::::i&#45;04fd5074ea610658f&#45;&gt;Subnet::::subnet&#45;065a08ebdf0608e49 -->
<g id="edge32" class="edge">
<title>EC2::::i&#45;04fd5074ea610658f&#45;&gt;Subnet::::subnet&#45;065a08ebdf0608e49</title>
<path fill="none" stroke="#707070" d="M189.54,-187.12C255.43,-171.49 404.39,-143.79 523,-178 556.33,-187.61 589.36,-208.28 614.23,-226.71"/>
<polygon fill="#707070" stroke="#707070" points="612.26,-229.6 622.34,-232.85 616.49,-224.03 612.26,-229.6"/>
</g>
<!-- EC2::::i&#45;04fd5074ea610658f&#45;&gt;NetworkInterface::::eni&#45;0a9e0f678b85703d2 -->
<g id="edge34" class="edge">
<title>EC2::::i&#45;04fd5074ea610658f&#45;&gt;NetworkInterface::::eni&#45;0a9e0f678b85703d2</title>
<path fill="none" stroke="#707070" d="M189.67,-183.65C225.25,-170.78 282.48,-150.09 331.11,-132.5"/>
<polygon fill="#707070" stroke="#707070" points="332.5,-135.72 340.72,-129.03 330.12,-129.14 332.5,-135.72"/>
</g>
<!-- SecurityGroup::::sg&#45;0f5a5a8be545dd1ef -->
<g id="node24" class="node">
<title>SecurityGroup::::sg&#45;0f5a5a8be545dd1ef</title>
<polygon fill="#e5e5e5" stroke="#dddddd" points="725.5,-177 589.5,-177 589.5,-119 725.5,-119 725.5,-177"/>
<text text-anchor="start" x="601.5" y="-157.2" font-family="Helvetica,sans-Serif" font-weight="bold" font-size="16.00" fill="#707070">SecurityGroup</text>
<text text-anchor="start" x="601.5" y="-132.2" font-family="Helvetica,sans-Serif" font-size="16.00" fill="#383838">securityGroup</text>
</g>
<!-- EC2::::i&#45;04fd5074ea610658f&#45;&gt;SecurityGroup::::sg&#45;0f5a5a8be545dd1ef -->
<g id="edge35" class="edge">
<title>EC2::::i&#45;04fd5074ea610658f&#45;&gt;SecurityGroup::::sg&#45;0f5a5a8be545dd1ef</title>
<path fill="none" stroke="#707070" d="M189.8,-187.57C223.1,-179.77 275.19,-168.56 321,-163 409.09,-152.31 511.01,-149.03 579.19,-148.13"/>
<polygon fill="#707070" stroke="#707070" points="579.46,-151.62 589.41,-148.01 579.37,-144.62 579.46,-151.62"/>
</g>
<!-- NetworkInterface::::eni&#45;0a9e0f678b85703d2&#45;&gt;Vpc::::vpc&#45;08d3c90a56647aac5 -->
<g id="edge8" class="edge">
<title>NetworkInterface::::eni&#45;0a9e0f678b85703d2&#45;&gt;Vpc::::vpc&#45;08d3c90a56647aac5</title>
<path fill="none" stroke="#707070" d="M522.09,-73.77C594.76,-60.85 691.59,-57.65 756,-110 789.52,-137.25 807.21,-263.06 814.26,-328.38"/>
<polygon fill="#707070" stroke="#707070" points="810.82,-329.12 815.34,-338.7 817.78,-328.39 810.82,-329.12"/>
</g>
<!-- NetworkInterface::::eni&#45;0a9e0f678b85703d2&#45;&gt;Subnet::::subnet&#45;065a08ebdf0608e49 -->
<g id="edge9" class="edge">
<title>NetworkInterface::::eni&#45;0a9e0f678b85703d2&#45;&gt;Subnet::::subnet&#45;065a08ebdf0608e49</title>
<path fill="none" stroke="#707070" d="M470.79,-129.08C487.48,-139.51 506.24,-151.53 523,-163 552.76,-183.37 585.28,-207.44 610.77,-226.75"/>
<polygon fill="#707070" stroke="#707070" points="608.71,-229.58 618.79,-232.84 612.94,-224 608.71,-229.58"/>
</g>
<!-- NetworkInterface::::eni&#45;0a9e0f678b85703d2&#45;&gt;SecurityGroup::::sg&#45;0f5a5a8be545dd1ef -->
<g id="edge7" class="edge">
<title>NetworkInterface::::eni&#45;0a9e0f678b85703d2&#45;&gt;SecurityGroup::::sg&#45;0f5a5a8be545dd1ef</title>
<path fill="none" stroke="#707070" d="M522.03,-120.36C541.22,-124.3 561.06,-128.38 579.42,-132.16"/>
<polygon fill="#707070" stroke="#707070" points="578.96,-135.63 589.46,-134.22 580.37,-128.78 578.96,-135.63"/>
</g>
<!-- SecurityGroup::::sg&#45;0f5a5a8be545dd1ef&#45;&gt;Vpc::::vpc&#45;08d3c90a56647aac5 -->
<g id="edge17" class="edge">
<title>SecurityGroup::::sg&#45;0f5a5a8be545dd1ef&#45;&gt;Vpc::::vpc&#45;08d3c90a56647aac5</title>
<path fill="none" stroke="#707070" d="M705.37,-177.16C722.99,-189.87 742.09,-205.99 756,-224 780.44,-255.64 797.25,-298.39 807.13,-329.07"/>
<polygon fill="#707070" stroke="#707070" points="803.9,-330.47 810.22,-338.98 810.59,-328.39 803.9,-330.47"/>
</g>
<!-- SecurityGroup::::sg&#45;0fefd1c8a63a6ebcf -->
<g id="node25" class="node">
<title>SecurityGroup::::sg&#45;0fefd1c8a63a6ebcf</title>
<polygon fill="#e5e5e5" stroke="#dddddd" points="725.5,-541 589.5,-541 589.5,-483 725.5,-483 725.5,-541"/>
<text text-anchor="start" x="601.5" y="-521.2" font-family="Helvetica,sans-Serif" font-weight="bold" font-size="16.00" fill="#707070">SecurityGroup</text>
<text text-anchor="start" x="601.5" y="-496.2" font-family="Helvetica,sans-Serif" font-size="16.00" fill="#383838">default</text>
</g>
<!-- SecurityGroup::::sg&#45;0fefd1c8a63a6ebcf&#45;&gt;Vpc::::vpc&#45;08d3c90a56647aac5 -->
<g id="edge18" class="edge">
<title>SecurityGroup::::sg&#45;0fefd1c8a63a6ebcf&#45;&gt;Vpc::::vpc&#45;08d3c90a56647aac5</title>
<path fill="none" stroke="#707070" d="M725.72,-488.86C736.53,-483.37 747.08,-476.79 756,-469 775.49,-451.98 790.79,-427.32 801.32,-406.62"/>
<polygon fill="#707070" stroke="#707070" points="804.56,-407.95 805.81,-397.43 798.27,-404.87 804.56,-407.95"/>
</g>
<!-- SecurityGroup::::sg&#45;0fefd1c8a63a6ebcf&#45;&gt;SecurityGroup::::sg&#45;0fefd1c8a63a6ebcf -->
<g id="edge19" class="edge">
<title>SecurityGroup::::sg&#45;0fefd1c8a63a6ebcf&#45;&gt;SecurityGroup::::sg&#45;0fefd1c8a63a6ebcf</title>
<path fill="none" stroke="#707070" d="M627.5,-541.38C627.5,-551.17 637.5,-559 657.5,-559 670.31,-559 679.02,-555.79 683.63,-550.9"/>
<polygon fill="#707070" stroke="#707070" points="686.97,-551.96 687.5,-541.38 680.49,-549.32 686.97,-551.96"/>
</g>
<!-- SecurityGroup::::sg&#45;7443110c -->
<g id="node26" class="node">
<title>SecurityGroup::::sg&#45;7443110c</title>
<polygon fill="#e5e5e5" stroke="#dddddd" points="490,-989 354,-989 354,-931 490,-931 490,-989"/>
<text text-anchor="start" x="366" y="-969.2" font-family="Helvetica,sans-Serif" font-weight="bold" font-size="16.00" fill="#707070">SecurityGroup</text>
<text text-anchor="start" x="366" y="-944.2" font-family="Helvetica,sans-Serif" font-size="16.00" fill="#383838">default</text>
</g>
<!-- SecurityGroup::::sg&#45;7443110c&#45;&gt;Vpc::::vpc&#45;e3f7af8b -->
<g id="edge20" class="edge">
<title>SecurityGroup::::sg&#45;7443110c&#45;&gt;Vpc::::vpc&#45;e3f7af8b</title>
<path fill="none" stroke="#707070" d="M490.23,-940.82C501.82,-935.79 513.25,-929.58 523,-922 575.97,-880.83 616.49,-812.9 638.36,-770.39"/>
<polygon fill="#707070" stroke="#707070" points="641.61,-771.71 643,-761.21 635.36,-768.56 641.61,-771.71"/>
</g>
<!-- SecurityGroup::::sg&#45;7443110c&#45;&gt;SecurityGroup::::sg&#45;7443110c -->
<g id="edge21" class="edge">
<title>SecurityGroup::::sg&#45;7443110c&#45;&gt;SecurityGroup::::sg&#45;7443110c</title>
<path fill="none" stroke="#707070" d="M378.12,-989.38C378.12,-999.17 392.75,-1007 422,-1007 441.2,-1007 454.09,-1003.63 460.69,-998.54"/>
<polygon fill="#707070" stroke="#707070" points="464,-999.8 465.88,-989.38 457.9,-996.36 464,-999.8"/>
</g>
</g>
</svg>
