<?xml version="1.0" encoding="UTF-8" standalone="no"?><svg xmlns="http://www.w3.org/2000/svg" xmlns:xlink="http://www.w3.org/1999/xlink" contentScriptType="application/ecmascript" contentStyleType="text/css" height="1245px" preserveAspectRatio="none" style="width:766px;height:1245px;background:#FFFFFF;" version="1.1" viewBox="0 0 766 1245" width="766px" zoomAndPan="magnify"><defs><filter height="300%" id="f1kcm1dcn7dno5" width="300%" x="-1" y="-1"><feGaussianBlur result="blurOut" stdDeviation="2.0"/><feColorMatrix in="blurOut" result="blurOut2" type="matrix" values="0 0 0 0 0 0 0 0 0 0 0 0 0 0 0 0 0 0 .4 0"/><feOffset dx="4.0" dy="4.0" in="blurOut2" result="blurOut3"/><feBlend in="SourceGraphic" in2="blurOut3" mode="normal"/></filter></defs><g><rect fill="none" height="26.4883" style="stroke:none;stroke-width:1.0;" width="269" x="218.5" y="15"/><text fill="#000000" font-family="sans-serif" font-size="14" font-weight="bold" lengthAdjust="spacing" textLength="259" x="223.5" y="33.5352">Resources for project grucloud-aws</text><rect fill="#F8F8F8" filter="url(#f1kcm1dcn7dno5)" height="36.4883" rx="12.5" ry="12.5" style="stroke:#383838;stroke-width:1.5;" width="52" x="10" y="622.3711"/><text fill="#000000" font-family="sans-serif" font-size="14" lengthAdjust="spacing" textLength="32" x="20" y="645.9063">Infra</text><rect fill="#F8F8F8" filter="url(#f1kcm1dcn7dno5)" height="36.4883" rx="12.5" ry="12.5" style="stroke:#383838;stroke-width:1.5;" width="46" x="112" y="622.3711"/><text fill="#000000" font-family="sans-serif" font-size="14" lengthAdjust="spacing" textLength="26" x="122" y="645.9063">aws</text><rect fill="#F8F8F8" filter="url(#f1kcm1dcn7dno5)" height="36.4883" rx="12.5" ry="12.5" style="stroke:#383838;stroke-width:1.5;" width="44" x="208" y="452.9063"/><text fill="#000000" font-family="sans-serif" font-size="14" lengthAdjust="spacing" textLength="24" x="218" y="476.4414">ec2</text><rect fill="#F8F8F8" filter="url(#f1kcm1dcn7dno5)" height="36.4883" rx="12.5" ry="12.5" style="stroke:#383838;stroke-width:1.5;" width="93" x="302" y="57.4883"/><text fill="#000000" font-family="sans-serif" font-size="14" lengthAdjust="spacing" textLength="73" x="312" y="81.0234">KeyPair (1)</text><rect fill="#F8F8F8" filter="url(#f1kcm1dcn7dno5)" height="36.4883" rx="12.5" ry="12.5" style="stroke:#383838;stroke-width:1.5;" width="116" x="445" y="57.4883"/><text fill="#000000" font-family="sans-serif" font-size="14" lengthAdjust="spacing" textLength="96" x="455" y="81.0234">grucloud-app</text><path d="M395,75.7324 L405,75.7324 C420,75.7324 420,75.7324 435,75.7324 L445,75.7324 " fill="none" style="stroke:#383838;stroke-width:1.0;"/><path d="M252,471.1504 L262,471.1504 C277,471.1504 277,75.7324 292,75.7324 L302,75.7324 " fill="none" style="stroke:#383838;stroke-width:1.0;"/><rect fill="#F8F8F8" filter="url(#f1kcm1dcn7dno5)" height="36.4883" rx="12.5" ry="12.5" style="stroke:#383838;stroke-width:1.5;" width="68" x="302" y="113.9766"/><text fill="#000000" font-family="sans-serif" font-size="14" lengthAdjust="spacing" textLength="48" x="312" y="137.5117">Vpc (1)</text><rect fill="#F8F8F8" filter="url(#f1kcm1dcn7dno5)" height="36.4883" rx="12.5" ry="12.5" style="stroke:#383838;stroke-width:1.5;" width="43" x="420" y="113.9766"/><text fill="#000000" font-family="sans-serif" font-size="14" lengthAdjust="spacing" textLength="23" x="430" y="137.5117">vpc</text><path d="M370,132.2207 L380,132.2207 C395,132.2207 395,132.2207 410,132.2207 L420,132.2207 " fill="none" style="stroke:#383838;stroke-width:1.0;"/><path d="M252,471.1504 L262,471.1504 C277,471.1504 277,132.2207 292,132.2207 L302,132.2207 " fill="none" style="stroke:#383838;stroke-width:1.0;"/><rect fill="#F8F8F8" filter="url(#f1kcm1dcn7dno5)" height="36.4883" rx="12.5" ry="12.5" style="stroke:#383838;stroke-width:1.5;" width="154" x="302" y="170.4648"/><text fill="#000000" font-family="sans-serif" font-size="14" lengthAdjust="spacing" textLength="134" x="312" y="194">InternetGateway (1)</text><rect fill="#F8F8F8" filter="url(#f1kcm1dcn7dno5)" height="36.4883" rx="12.5" ry="12.5" style="stroke:#383838;stroke-width:1.5;" width="33" x="506" y="170.4648"/><text fill="#000000" font-family="sans-serif" font-size="14" lengthAdjust="spacing" textLength="13" x="516" y="194">ig</text><path d="M456,188.709 L466,188.709 C481,188.709 481,188.709 496,188.709 L506,188.709 " fill="none" style="stroke:#383838;stroke-width:1.0;"/><path d="M252,471.1504 L262,471.1504 C277,471.1504 277,188.709 292,188.709 L302,188.709 " fill="none" style="stroke:#383838;stroke-width:1.0;"/><rect fill="#F8F8F8" filter="url(#f1kcm1dcn7dno5)" height="36.4883" rx="12.5" ry="12.5" style="stroke:#383838;stroke-width:1.5;" width="91" x="302" y="226.9531"/><text fill="#000000" font-family="sans-serif" font-size="14" lengthAdjust="spacing" textLength="71" x="312" y="250.4883">Subnet (1)</text><rect fill="#F8F8F8" filter="url(#f1kcm1dcn7dno5)" height="36.4883" rx="12.5" ry="12.5" style="stroke:#383838;stroke-width:1.5;" width="67" x="443" y="226.9531"/><text fill="#000000" font-family="sans-serif" font-size="14" lengthAdjust="spacing" textLength="47" x="453" y="250.4883">subnet</text><path d="M393,245.1973 L403,245.1973 C418,245.1973 418,245.1973 433,245.1973 L443,245.1973 " fill="none" style="stroke:#383838;stroke-width:1.0;"/><path d="M252,471.1504 L262,471.1504 C277,471.1504 277,245.1973 292,245.1973 L302,245.1973 " fill="none" style="stroke:#383838;stroke-width:1.0;"/><rect fill="#F8F8F8" filter="url(#f1kcm1dcn7dno5)" height="36.4883" rx="12.5" ry="12.5" style="stroke:#383838;stroke-width:1.5;" width="121" x="302" y="283.4414"/><text fill="#000000" font-family="sans-serif" font-size="14" lengthAdjust="spacing" textLength="101" x="312" y="306.9766">RouteTable (1)</text><rect fill="#F8F8F8" filter="url(#f1kcm1dcn7dno5)" height="36.4883" rx="12.5" ry="12.5" style="stroke:#383838;stroke-width:1.5;" width="99" x="473" y="283.4414"/><text fill="#000000" font-family="sans-serif" font-size="14" lengthAdjust="spacing" textLength="79" x="483" y="306.9766">route-table</text><path d="M423,301.6855 L433,301.6855 C448,301.6855 448,301.6855 463,301.6855 L473,301.6855 " fill="none" style="stroke:#383838;stroke-width:1.0;"/><path d="M252,471.1504 L262,471.1504 C277,471.1504 277,301.6855 292,301.6855 L302,301.6855 " fill="none" style="stroke:#383838;stroke-width:1.0;"/><rect fill="#F8F8F8" filter="url(#f1kcm1dcn7dno5)" height="36.4883" rx="12.5" ry="12.5" style="stroke:#383838;stroke-width:1.5;" width="83" x="302" y="339.9297"/><text fill="#000000" font-family="sans-serif" font-size="14" lengthAdjust="spacing" textLength="63" x="312" y="363.4648">Route (1)</text><rect fill="#F8F8F8" filter="url(#f1kcm1dcn7dno5)" height="36.4883" rx="12.5" ry="12.5" style="stroke:#383838;stroke-width:1.5;" width="78" x="435" y="339.9297"/><text fill="#000000" font-family="sans-serif" font-size="14" lengthAdjust="spacing" textLength="58" x="445" y="363.4648">route-ig</text><path d="M385,358.1738 L395,358.1738 C410,358.1738 410,358.1738 425,358.1738 L435,358.1738 " fill="none" style="stroke:#383838;stroke-width:1.0;"/><path d="M252,471.1504 L262,471.1504 C277,471.1504 277,358.1738 292,358.1738 L302,358.1738 " fill="none" style="stroke:#383838;stroke-width:1.0;"/><rect fill="#F8F8F8" filter="url(#f1kcm1dcn7dno5)" height="36.4883" rx="12.5" ry="12.5" style="stroke:#383838;stroke-width:1.5;" width="140" x="302" y="396.418"/><text fill="#000000" font-family="sans-serif" font-size="14" lengthAdjust="spacing" textLength="120" x="312" y="419.9531">SecurityGroup (1)</text><rect fill="#F8F8F8" filter="url(#f1kcm1dcn7dno5)" height="36.4883" rx="12.5" ry="12.5" style="stroke:#383838;stroke-width:1.5;" width="116" x="492" y="396.418"/><text fill="#000000" font-family="sans-serif" font-size="14" lengthAdjust="spacing" textLength="96" x="502" y="419.9531">securityGroup</text><path d="M442,414.6621 L452,414.6621 C467,414.6621 467,414.6621 482,414.6621 L492,414.6621 " fill="none" style="stroke:#383838;stroke-width:1.0;"/><path d="M252,471.1504 L262,471.1504 C277,471.1504 277,414.6621 292,414.6621 L302,414.6621 " fill="none" style="stroke:#383838;stroke-width:1.0;"/><rect fill="#F8F8F8" filter="url(#f1kcm1dcn7dno5)" height="36.4883" rx="12.5" ry="12.5" style="stroke:#383838;stroke-width:1.5;" width="220" x="302" y="537.6387"/><text fill="#000000" font-family="sans-serif" font-size="14" lengthAdjust="spacing" textLength="200" x="312" y="561.1738">SecurityGroupRuleIngress (4)</text><rect fill="#F8F8F8" filter="url(#f1kcm1dcn7dno5)" height="36.4883" rx="12.5" ry="12.5" style="stroke:#383838;stroke-width:1.5;" width="160" x="572" y="452.9063"/><text fill="#000000" font-family="sans-serif" font-size="14" lengthAdjust="spacing" textLength="140" x="582" y="476.4414">sg-rule-ingress-ssh</text><path d="M522,555.8828 L532,555.8828 C547,555.8828 547,471.1504 562,471.1504 L572,471.1504 " fill="none" style="stroke:#383838;stroke-width:1.0;"/><rect fill="#F8F8F8" filter="url(#f1kcm1dcn7dno5)" height="36.4883" rx="12.5" ry="12.5" style="stroke:#383838;stroke-width:1.5;" width="165" x="572" y="509.3945"/><text fill="#000000" font-family="sans-serif" font-size="14" lengthAdjust="spacing" textLength="145" x="582" y="532.9297">sg-rule-ingress-http</text><path d="M522,555.8828 L532,555.8828 C547,555.8828 547,527.6387 562,527.6387 L572,527.6387 " fill="none" style="stroke:#383838;stroke-width:1.0;"/><rect fill="#F8F8F8" filter="url(#f1kcm1dcn7dno5)" height="36.4883" rx="12.5" ry="12.5" style="stroke:#383838;stroke-width:1.5;" width="172" x="572" y="565.8828"/><text fill="#000000" font-family="sans-serif" font-size="14" lengthAdjust="spacing" textLength="152" x="582" y="589.418">sg-rule-ingress-https</text><path d="M522,555.8828 L532,555.8828 C547,555.8828 547,584.127 562,584.127 L572,584.127 " fill="none" style="stroke:#383838;stroke-width:1.0;"/><rect fill="#F8F8F8" filter="url(#f1kcm1dcn7dno5)" height="36.4883" rx="12.5" ry="12.5" style="stroke:#383838;stroke-width:1.5;" width="170" x="572" y="622.3711"/><text fill="#000000" font-family="sans-serif" font-size="14" lengthAdjust="spacing" textLength="150" x="582" y="645.9063">sg-rule-ingress-icmp</text><path d="M522,555.8828 L532,555.8828 C547,555.8828 547,640.6152 562,640.6152 L572,640.6152 " fill="none" style="stroke:#383838;stroke-width:1.0;"/><path d="M252,471.1504 L262,471.1504 C277,471.1504 277,555.8828 292,555.8828 L302,555.8828 " fill="none" style="stroke:#383838;stroke-width:1.0;"/><rect fill="#F8F8F8" filter="url(#f1kcm1dcn7dno5)" height="36.4883" rx="12.5" ry="12.5" style="stroke:#383838;stroke-width:1.5;" width="155" x="302" y="678.8594"/><text fill="#000000" font-family="sans-serif" font-size="14" lengthAdjust="spacing" textLength="135" x="312" y="702.3945">ElasticIpAddress (1)</text><rect fill="#F8F8F8" filter="url(#f1kcm1dcn7dno5)" height="36.4883" rx="12.5" ry="12.5" style="stroke:#383838;stroke-width:1.5;" width="33" x="507" y="678.8594"/><text fill="#000000" font-family="sans-serif" font-size="14" lengthAdjust="spacing" textLength="13" x="517" y="702.3945">ip</text><path d="M457,697.1035 L467,697.1035 C482,697.1035 482,697.1035 497,697.1035 L507,697.1035 " fill="none" style="stroke:#383838;stroke-width:1.0;"/><path d="M252,471.1504 L262,471.1504 C277,471.1504 277,697.1035 292,697.1035 L302,697.1035 " fill="none" style="stroke:#383838;stroke-width:1.0;"/><rect fill="#F8F8F8" filter="url(#f1kcm1dcn7dno5)" height="36.4883" rx="12.5" ry="12.5" style="stroke:#383838;stroke-width:1.5;" width="85" x="302" y="735.3477"/><text fill="#000000" font-family="sans-serif" font-size="14" lengthAdjust="spacing" textLength="65" x="312" y="758.8828">Image (1)</text><rect fill="#F8F8F8" filter="url(#f1kcm1dcn7dno5)" height="36.4883" rx="12.5" ry="12.5" style="stroke:#383838;stroke-width:1.5;" width="114" x="437" y="735.3477"/><text fill="#000000" font-family="sans-serif" font-size="14" lengthAdjust="spacing" textLength="94" x="447" y="758.8828">ubuntu 20.04</text><path d="M387,753.5918 L397,753.5918 C412,753.5918 412,753.5918 427,753.5918 L437,753.5918 " fill="none" style="stroke:#383838;stroke-width:1.0;"/><path d="M252,471.1504 L262,471.1504 C277,471.1504 277,753.5918 292,753.5918 L302,753.5918 " fill="none" style="stroke:#383838;stroke-width:1.0;"/><rect fill="#F8F8F8" filter="url(#f1kcm1dcn7dno5)" height="36.4883" rx="12.5" ry="12.5" style="stroke:#383838;stroke-width:1.5;" width="95" x="302" y="791.8359"/><text fill="#000000" font-family="sans-serif" font-size="14" lengthAdjust="spacing" textLength="75" x="312" y="815.3711">Volume (1)</text><rect fill="#F8F8F8" filter="url(#f1kcm1dcn7dno5)" height="36.4883" rx="12.5" ry="12.5" style="stroke:#383838;stroke-width:1.5;" width="70" x="447" y="791.8359"/><text fill="#000000" font-family="sans-serif" font-size="14" lengthAdjust="spacing" textLength="50" x="457" y="815.3711">volume</text><path d="M397,810.0801 L407,810.0801 C422,810.0801 422,810.0801 437,810.0801 L447,810.0801 " fill="none" style="stroke:#383838;stroke-width:1.0;"/><path d="M252,471.1504 L262,471.1504 C277,471.1504 277,810.0801 292,810.0801 L302,810.0801 " fill="none" style="stroke:#383838;stroke-width:1.0;"/><rect fill="#F8F8F8" filter="url(#f1kcm1dcn7dno5)" height="36.4883" rx="12.5" ry="12.5" style="stroke:#383838;stroke-width:1.5;" width="100" x="302" y="848.3242"/><text fill="#000000" font-family="sans-serif" font-size="14" lengthAdjust="spacing" textLength="80" x="312" y="871.8594">Instance (1)</text><rect fill="#F8F8F8" filter="url(#f1kcm1dcn7dno5)" height="36.4883" rx="12.5" ry="12.5" style="stroke:#383838;stroke-width:1.5;" width="62" x="452" y="848.3242"/><text fill="#000000" font-family="sans-serif" font-size="14" lengthAdjust="spacing" textLength="42" x="462" y="871.8594">server</text><path d="M402,866.5684 L412,866.5684 C427,866.5684 427,866.5684 442,866.5684 L452,866.5684 " fill="none" style="stroke:#383838;stroke-width:1.0;"/><path d="M252,471.1504 L262,471.1504 C277,471.1504 277,866.5684 292,866.5684 L302,866.5684 " fill="none" style="stroke:#383838;stroke-width:1.0;"/><path d="M158,640.6152 L168,640.6152 C183,640.6152 183,471.1504 198,471.1504 L208,471.1504 " fill="none" style="stroke:#383838;stroke-width:1.0;"/><rect fill="#F8F8F8" filter="url(#f1kcm1dcn7dno5)" height="36.4883" rx="12.5" ry="12.5" style="stroke:#383838;stroke-width:1.5;" width="128" x="208" y="904.8125"/><text fill="#000000" font-family="sans-serif" font-size="14" lengthAdjust="spacing" textLength="108" x="218" y="928.3477">route53Domain</text><rect fill="#F8F8F8" filter="url(#f1kcm1dcn7dno5)" height="36.4883" rx="12.5" ry="12.5" style="stroke:#383838;stroke-width:1.5;" width="96" x="386" y="904.8125"/><text fill="#000000" font-family="sans-serif" font-size="14" lengthAdjust="spacing" textLength="76" x="396" y="928.3477">Domain (1)</text><rect fill="#F8F8F8" filter="url(#f1kcm1dcn7dno5)" height="36.4883" rx="12.5" ry="12.5" style="stroke:#383838;stroke-width:1.5;" width="115" x="532" y="904.8125"/><text fill="#000000" font-family="sans-serif" font-size="14" lengthAdjust="spacing" textLength="95" x="542" y="928.3477">grucloud.com</text><path d="M482,923.0566 L492,923.0566 C507,923.0566 507,923.0566 522,923.0566 L532,923.0566 " fill="none" style="stroke:#383838;stroke-width:1.0;"/><path d="M336,923.0566 L346,923.0566 C361,923.0566 361,923.0566 376,923.0566 L386,923.0566 " fill="none" style="stroke:#383838;stroke-width:1.0;"/><path d="M158,640.6152 L168,640.6152 C183,640.6152 183,923.0566 198,923.0566 L208,923.0566 " fill="none" style="stroke:#383838;stroke-width:1.0;"/><rect fill="#F8F8F8" filter="url(#f1kcm1dcn7dno5)" height="36.4883" rx="12.5" ry="12.5" style="stroke:#383838;stroke-width:1.5;" width="75" x="208" y="1074.2773"/><text fill="#000000" font-family="sans-serif" font-size="14" lengthAdjust="spacing" textLength="55" x="218" y="1097.8125">route53</text><rect fill="#F8F8F8" filter="url(#f1kcm1dcn7dno5)" height="36.4883" rx="12.5" ry="12.5" style="stroke:#383838;stroke-width:1.5;" width="125" x="333" y="961.3008"/><text fill="#000000" font-family="sans-serif" font-size="14" lengthAdjust="spacing" textLength="105" x="343" y="984.8359">HostedZone (1)</text><rect fill="#F8F8F8" filter="url(#f1kcm1dcn7dno5)" height="36.4883" rx="12.5" ry="12.5" style="stroke:#383838;stroke-width:1.5;" width="119" x="508" y="961.3008"/><text fill="#000000" font-family="sans-serif" font-size="14" lengthAdjust="spacing" textLength="99" x="518" y="984.8359">grucloud.com.</text><path d="M458,979.5449 L468,979.5449 C483,979.5449 483,979.5449 498,979.5449 L508,979.5449 " fill="none" style="stroke:#383838;stroke-width:1.0;"/><path d="M283,1092.5215 L293,1092.5215 C308,1092.5215 308,979.5449 323,979.5449 L333,979.5449 " fill="none" style="stroke:#383838;stroke-width:1.0;"/><rect fill="#F8F8F8" filter="url(#f1kcm1dcn7dno5)" height="36.4883" rx="12.5" ry="12.5" style="stroke:#383838;stroke-width:1.5;" width="91" x="333" y="1102.5215"/><text fill="#000000" font-family="sans-serif" font-size="14" lengthAdjust="spacing" textLength="71" x="343" y="1126.0566">Record (4)</text><rect fill="#F8F8F8" filter="url(#f1kcm1dcn7dno5)" height="36.4883" rx="12.5" ry="12.5" style="stroke:#383838;stroke-width:1.5;" width="149" x="474" y="1017.7891"/><text fill="#000000" font-family="sans-serif" font-size="14" lengthAdjust="spacing" textLength="129" x="484" y="1041.3242">app.grucloud.com.</text><path d="M424,1120.7656 L434,1120.7656 C449,1120.7656 449,1036.0332 464,1036.0332 L474,1036.0332 " fill="none" style="stroke:#383838;stroke-width:1.0;"/><rect fill="#F8F8F8" filter="url(#f1kcm1dcn7dno5)" height="36.4883" rx="12.5" ry="12.5" style="stroke:#383838;stroke-width:1.5;" width="119" x="474" y="1074.2773"/><text fill="#000000" font-family="sans-serif" font-size="14" lengthAdjust="spacing" textLength="99" x="484" y="1097.8125">grucloud.com.</text><path d="M424,1120.7656 L434,1120.7656 C449,1120.7656 449,1092.5215 464,1092.5215 L474,1092.5215 " fill="none" style="stroke:#383838;stroke-width:1.0;"/><rect fill="#F8F8F8" filter="url(#f1kcm1dcn7dno5)" height="36.4883" rx="12.5" ry="12.5" style="stroke:#383838;stroke-width:1.5;" width="273" x="474" y="1130.7656"/><text fill="#000000" font-family="sans-serif" font-size="14" lengthAdjust="spacing" textLength="253" x="484" y="1154.3008">grucloud.com.-gitpage-record-www</text><path d="M424,1120.7656 L434,1120.7656 C449,1120.7656 449,1149.0098 464,1149.0098 L474,1149.0098 " fill="none" style="stroke:#383838;stroke-width:1.0;"/><rect fill="#F8F8F8" filter="url(#f1kcm1dcn7dno5)" height="36.4883" rx="12.5" ry="12.5" style="stroke:#383838;stroke-width:1.5;" width="149" x="474" y="1187.2539"/><text fill="#000000" font-family="sans-serif" font-size="14" lengthAdjust="spacing" textLength="129" x="484" y="1210.7891">grucloud.com.-mx</text><path d="M424,1120.7656 L434,1120.7656 C449,1120.7656 449,1205.498 464,1205.498 L474,1205.498 " fill="none" style="stroke:#383838;stroke-width:1.0;"/><path d="M283,1092.5215 L293,1092.5215 C308,1092.5215 308,1120.7656 323,1120.7656 L333,1120.7656 " fill="none" style="stroke:#383838;stroke-width:1.0;"/><path d="M158,640.6152 L168,640.6152 C183,640.6152 183,1092.5215 198,1092.5215 L208,1092.5215 " fill="none" style="stroke:#383838;stroke-width:1.0;"/><path d="M62,640.6152 L72,640.6152 C87,640.6152 87,640.6152 102,640.6152 L112,640.6152 " fill="none" style="stroke:#383838;stroke-width:1.0;"/><!--MD5=[2c13ea64b9deb2055c488cd5dc87ea7d]
@startmindmap
title Resources for project grucloud-aws
skinparam monochrome true
+ Infra
++ aws
+++ ec2
++++ KeyPair (1)
+++++ grucloud-app
++++ Vpc (1)
+++++ vpc
++++ InternetGateway (1)
+++++ ig
++++ Subnet (1)
+++++ subnet
++++ RouteTable (1)
+++++ route-table
++++ Route (1)
+++++ route-ig
++++ SecurityGroup (1)
+++++ securityGroup
++++ SecurityGroupRuleIngress (4)
+++++ sg-rule-ingress-ssh
+++++ sg-rule-ingress-http
+++++ sg-rule-ingress-https
+++++ sg-rule-ingress-icmp
++++ ElasticIpAddress (1)
+++++ ip
++++ Image (1)
+++++ ubuntu 20.04
++++ Volume (1)
+++++ volume
++++ Instance (1)
+++++ server
+++ route53Domain
++++ Domain (1)
+++++ grucloud.com
+++ route53
++++ HostedZone (1)
+++++ grucloud.com.
++++ Record (4)
+++++ app.grucloud.com.
+++++ grucloud.com.
+++++ grucloud.com.-gitpage-record-www
+++++ grucloud.com.-mx
@endmindmap

PlantUML version 1.2021.8(Sat Jun 26 10:20:59 CEST 2021)
(GPL source distribution)
Java Runtime: OpenJDK Runtime Environment
JVM: OpenJDK 64-Bit Server VM
Default Encoding: UTF-8
Language: en
Country: GB
--></g></svg>