<svg width="118" height="70" viewBox="0 0 118 70" fill="none" xmlns="http://www.w3.org/2000/svg">
    <path d="M33.2536 25.4227C33.2536 26.8632 33.4105 28.0312 33.6853 28.8877C33.9992 29.7442 34.3917 30.6785 34.9411 31.6908C35.1373 32.0022 35.2158 32.3137 35.2158 32.5862C35.2158 32.9755 34.9804 33.3649 34.4702 33.7542L31.9977 35.3893C31.6445 35.6229 31.2913 35.7397 30.9773 35.7397C30.5849 35.7397 30.1924 35.5451 29.8 35.1947C29.2505 34.6107 28.7796 33.9878 28.3871 33.3649C27.9947 32.703 27.6022 31.9633 27.1705 31.0679C24.1093 34.6496 20.2633 36.4405 15.6323 36.4405C12.3357 36.4405 9.70623 35.5061 7.7832 33.6374C5.86017 31.7686 4.87903 29.277 4.87903 26.1624C4.87903 22.8532 6.0564 20.1669 8.45037 18.1424C10.8444 16.1179 14.0232 15.1057 18.0655 15.1057C19.3999 15.1057 20.7735 15.2225 22.2256 15.4171C23.6776 15.6118 25.169 15.9233 26.7388 16.2736V13.4316C26.7388 10.4727 26.1109 8.40934 24.8943 7.20245C23.6384 5.99555 21.5191 5.41157 18.4972 5.41157C17.1236 5.41157 15.7108 5.5673 14.2587 5.91769C12.8066 6.26808 11.3938 6.69633 10.0202 7.24138C9.39227 7.51391 8.92132 7.66963 8.6466 7.7475C8.37188 7.82536 8.17565 7.86429 8.01867 7.86429C7.46923 7.86429 7.19452 7.47497 7.19452 6.6574V4.74972C7.19452 4.12681 7.27301 3.65962 7.46923 3.3871C7.66546 3.11457 8.01867 2.84205 8.56811 2.56952C9.9417 1.86874 11.59 1.28476 13.513 0.817575C15.4361 0.311457 17.4768 0.0778643 19.6354 0.0778643C24.3056 0.0778643 27.7199 1.12903 29.9177 3.23137C32.0762 5.3337 33.1751 8.52614 33.1751 12.8087V25.4227H33.2536ZM17.3199 31.3404C18.615 31.3404 19.9493 31.1068 21.3622 30.6396C22.775 30.1724 24.0309 29.3159 25.0905 28.1479C25.7184 27.4082 26.1894 26.5907 26.4248 25.6563C26.6603 24.7219 26.8173 23.5929 26.8173 22.2692V20.634C25.6792 20.3615 24.4626 20.1279 23.2067 19.9722C21.9508 19.8165 20.7342 19.7386 19.5176 19.7386C16.8882 19.7386 14.9651 20.2447 13.67 21.2959C12.3749 22.3471 11.747 23.8265 11.747 25.7731C11.747 27.6029 12.2179 28.9655 13.1991 29.8999C14.141 30.8732 15.5146 31.3404 17.3199 31.3404V31.3404ZM48.834 35.5451C48.1276 35.5451 47.6567 35.4283 47.3427 35.1557C47.0288 34.9221 46.754 34.3771 46.5186 33.6374L37.2959 3.54283C37.0604 2.76418 36.9426 2.25806 36.9426 1.98554C36.9426 1.36263 37.2566 1.01224 37.8845 1.01224H41.7306C42.4763 1.01224 42.9865 1.12903 43.2612 1.40156C43.5751 1.63515 43.8106 2.1802 44.0461 2.91991L50.6393 28.693L56.7616 2.91991C56.9579 2.14127 57.1933 1.63515 57.5073 1.40156C57.8213 1.16796 58.3707 1.01224 59.0771 1.01224H62.2168C62.9624 1.01224 63.4726 1.12903 63.7866 1.40156C64.1006 1.63515 64.3753 2.1802 64.5323 2.91991L70.7331 29.0045L77.5225 2.91991C77.758 2.14127 78.0327 1.63515 78.3075 1.40156C78.6214 1.16796 79.1316 1.01224 79.838 1.01224H83.4879C84.1158 1.01224 84.469 1.32369 84.469 1.98554C84.469 2.1802 84.4298 2.37486 84.3905 2.60845C84.3513 2.84205 84.2728 3.1535 84.1158 3.58176L74.6576 33.6763C74.4221 34.455 74.1474 34.9611 73.8335 35.1947C73.5195 35.4283 73.0093 35.584 72.3421 35.584H68.967C68.2213 35.584 67.7112 35.4672 67.3972 35.1947C67.0832 34.9221 66.8085 34.416 66.6515 33.6374L60.5685 8.52614L54.5247 33.5984C54.3284 34.3771 54.0929 34.8832 53.779 35.1557C53.465 35.4283 52.9156 35.5451 52.2092 35.5451H48.834V35.5451ZM99.2646 36.5962C97.2238 36.5962 95.183 36.3626 93.2208 35.8954C91.2585 35.4283 89.7279 34.9221 88.7075 34.3382C88.0796 33.9878 87.6479 33.5984 87.4909 33.2481C87.3339 32.8977 87.2554 32.5083 87.2554 32.158V30.1724C87.2554 29.3548 87.5694 28.9655 88.1581 28.9655C88.3936 28.9655 88.629 29.0045 88.8645 29.0823C89.1 29.1602 89.4532 29.3159 89.8456 29.4716C91.18 30.0556 92.6321 30.5228 94.1627 30.8343C95.7325 31.1457 97.2631 31.3014 98.8329 31.3014C101.305 31.3014 103.228 30.8732 104.563 30.0167C105.897 29.1602 106.603 27.9144 106.603 26.3181C106.603 25.228 106.25 24.3326 105.544 23.5929C104.837 22.8532 103.503 22.1913 101.58 21.5684L95.8895 19.8165C93.0245 18.921 90.9053 17.5973 89.6102 15.8454C88.3151 14.1324 87.6479 12.2247 87.6479 10.2002C87.6479 8.56507 88.0011 7.12458 88.7075 5.87875C89.4139 4.63293 90.3558 3.54283 91.5332 2.68632C92.7106 1.79088 94.0449 1.12903 95.6147 0.661847C97.1846 0.194661 98.8329 0 100.56 0C101.423 0 102.326 0.0389321 103.189 0.155729C104.092 0.272525 104.916 0.428254 105.74 0.583982C106.525 0.778643 107.271 0.973304 107.977 1.2069C108.684 1.44049 109.233 1.67408 109.625 1.90768C110.175 2.21913 110.567 2.53059 110.803 2.88098C111.038 3.19244 111.156 3.62069 111.156 4.16574V5.99555C111.156 6.81313 110.842 7.24138 110.253 7.24138C109.939 7.24138 109.429 7.08565 108.762 6.77419C106.525 5.76196 104.013 5.25584 101.227 5.25584C98.9899 5.25584 97.2238 5.60623 96.0072 6.34594C94.7906 7.08565 94.1627 8.21468 94.1627 9.8109C94.1627 10.901 94.5551 11.8354 95.34 12.5751C96.1249 13.3148 97.577 14.0545 99.657 14.7164L105.23 16.4683C108.056 17.3637 110.096 18.6096 111.313 20.2058C112.53 21.802 113.118 23.6318 113.118 25.6563C113.118 27.3304 112.765 28.8487 112.098 30.1724C111.391 31.4961 110.45 32.6641 109.233 33.5984C108.016 34.5718 106.564 35.2725 104.877 35.7786C103.111 36.3237 101.266 36.5962 99.2646 36.5962V36.5962Z" fill="#252F3E"/>
    <path fill-rule="evenodd" clip-rule="evenodd" d="M106.682 55.5172C93.7702 64.9778 75.0108 70 58.8809 70C36.2755 70 15.907 61.7075 0.522757 47.9255C-0.693855 46.8354 0.405021 45.356 1.85711 46.2125C18.4972 55.7898 39.0226 61.5907 60.2545 61.5907C74.5791 61.5907 90.3166 58.6318 104.798 52.5584C106.957 51.5851 108.801 53.96 106.682 55.5172V55.5172Z" fill="#FF9900"/>
    <path fill-rule="evenodd" clip-rule="evenodd" d="M112.059 49.4438C110.41 47.3415 101.148 48.4316 96.9491 48.9377C95.6932 49.0934 95.497 48.0033 96.6351 47.1858C104.013 42.0467 116.14 43.5261 117.553 45.2392C118.966 46.9911 117.161 59.0211 110.253 64.7831C109.194 65.6785 108.173 65.2114 108.644 64.0434C110.214 60.1891 113.707 51.5072 112.059 49.4438V49.4438Z" fill="#FF9900"/>
</svg>
