<svg width="261" height="75" viewBox="0 0 261 75" fill="none" xmlns="http://www.w3.org/2000/svg">
    <path d="M44.9084 70.9905L67.8041 66.9564L68.0162 66.9072L56.2428 52.9354C52.2968 48.2749 48.3723 43.5962 44.4694 38.8996C44.4694 38.8308 56.6275 5.43621 56.6966 5.31814C56.7163 5.27878 64.9927 19.5261 76.7512 39.854L96.9243 74.7343L97.0772 75L59.6559 74.9951L22.2347 74.9902L44.9084 70.9954V70.9905ZM188.418 67.6156C182.721 67.2516 179.412 64.0144 178.534 57.9583C178.297 56.3496 178.297 56.3053 178.272 45.8511L178.253 35.7265H183.293L183.313 45.5166C183.333 54.3424 183.343 55.3755 183.427 55.9954C183.772 58.5143 184.453 60.2115 185.617 61.4267C186.549 62.4008 187.639 62.9715 189.148 63.2716C189.858 63.4142 191.885 63.4192 192.532 63.2716C194.061 62.937 195.289 62.2729 196.369 61.1955C197.602 59.9656 198.514 58.2191 198.953 56.2512L199.101 55.5871L199.121 45.7133L199.136 35.8396H204.285V66.8826H199.19V64.4178C199.19 62.7452 199.17 61.958 199.131 61.9728C199.015 62.107 198.917 62.2559 198.84 62.4155C197.912 64.0621 196.549 65.4234 194.899 66.3513C192.976 67.409 191.052 67.7829 188.418 67.6156V67.6156ZM246.239 67.591C244.164 67.4191 242.157 66.7655 240.38 65.6822C236.73 63.4339 234.574 59.7245 233.943 54.6179C233.723 52.7461 233.701 50.8563 233.879 48.98C234.288 45.6248 235.605 42.3336 237.489 39.977C237.973 39.3768 239.068 38.2847 239.669 37.8075C241.302 36.5087 243.211 35.5936 245.238 35.1558C246.417 34.9 248.493 34.777 249.751 34.895C252.898 35.1853 255.788 36.6661 257.751 38.9931C259.744 41.3545 260.839 44.6655 260.977 48.734C261.002 49.3736 261.006 50.4903 260.992 51.2234L260.962 52.5467L249.929 52.5615L238.895 52.5763V53.0682C238.895 54.5589 239.26 56.266 239.891 57.7124C240.434 58.962 241.371 60.3247 242.136 60.9839C243.705 62.3382 245.662 63.1645 247.729 63.3454C248.508 63.4192 250.491 63.3454 251.379 63.2076C253.875 62.8359 256.242 61.8614 258.274 60.369C258.501 60.1968 258.718 60.0394 258.762 60.0148C258.817 59.9803 258.831 60.428 258.831 62.3073V64.6441L258.304 64.9639C256.053 66.3395 253.531 67.2122 250.91 67.5221C250.116 67.6205 247.191 67.6599 246.239 67.591V67.591ZM255.842 47.8829C255.842 45.3788 254.782 42.5992 253.287 41.1676C252.22 40.1459 250.856 39.4864 249.391 39.2834C248.384 39.1785 247.367 39.2066 246.367 39.367C244.745 39.6917 243.408 40.4001 242.239 41.5562C241.002 42.7786 240.067 44.2707 239.507 45.9151C239.274 46.6151 239.098 47.3323 238.979 48.06L238.944 48.3208H255.842V47.8829ZM106.167 66.8088L114.493 44.9951L122.799 23.2453H128.136L128.353 23.8111C129.033 25.5428 144.975 66.8334 144.975 66.858C144.975 66.8678 143.697 66.8777 142.138 66.8777H139.302L137.004 60.7773L134.706 54.6769H116.2L116.116 54.8786L113.936 60.979L111.835 66.8826H108.989C106.74 66.8826 106.153 66.8678 106.167 66.8088V66.8088ZM133.014 50.018C133.014 50.0082 131.47 45.8265 129.576 40.7199C126.04 31.1758 125.842 30.6051 125.566 29.0702C125.433 28.3519 125.369 28.3322 125.29 28.9866C125.236 29.4588 124.994 30.5067 124.806 31.0872C124.713 31.3775 123.125 35.7363 121.27 40.7789C120.135 43.8451 119.011 46.915 117.896 49.9885C117.896 50.0131 121.3 50.0377 125.458 50.0377C129.615 50.0377 133.014 50.0279 133.014 50.018V50.018ZM146.691 66.0856V65.2886L155.914 52.6451L165.133 40.0066L156.782 39.982L148.437 39.9524L148.422 37.837L148.407 35.7265H172.556V37.1532L163.333 49.8655C160.25 54.1052 157.175 58.3509 154.109 62.6025C154.109 62.6173 158.213 62.6271 163.224 62.6271H172.334V66.8777H146.686L146.691 66.0856ZM214.347 66.8432C214.322 66.8235 214.308 59.8131 214.308 51.2676V35.7265H219.348V38.9292C219.348 40.6953 219.368 42.1368 219.398 42.1368C219.514 41.9354 219.605 41.7206 219.669 41.4972C220.251 39.8534 221.215 38.3701 222.48 37.1679C223.569 36.1136 224.961 35.4241 226.461 35.1951C226.895 35.1263 227.26 35.1115 228.123 35.1361C229.208 35.1656 229.775 35.2443 230.441 35.4559L230.643 35.5248V40.7396L230.051 40.4444C229.02 39.9229 227.866 39.6916 226.712 39.7753C225.671 39.8073 224.655 40.0959 223.753 40.6152C222.851 41.1346 222.092 41.8686 221.543 42.7517C220.448 44.4982 219.669 46.7366 219.437 48.798C219.393 49.1669 219.368 52.1778 219.358 58.1109L219.348 66.8777H216.863C215.501 66.8777 214.367 66.8629 214.347 66.8432V66.8432ZM0 66.735C0 66.7153 5.54882 57.1072 12.3307 45.3837L24.6614 24.0718L39.0291 12.0433C46.9307 5.43129 53.4166 0.00983929 53.4462 0C53.3934 0.202353 53.3155 0.39736 53.2144 0.580518L37.6086 33.9603L22.284 66.7399L11.142 66.7547C5.01613 66.7645 0 66.7547 0 66.735Z" fill="#0089D6"/>
</svg>
