<?xml version="1.0" encoding="UTF-8" standalone="no"?>
<!DOCTYPE svg PUBLIC "-//W3C//DTD SVG 1.1//EN" "http://www.w3.org/Graphics/SVG/1.1/DTD/svg11.dtd">
<svg version="1.1" xmlns="http://www.w3.org/2000/svg" xmlns:xlink="http://www.w3.org/1999/xlink"  preserveAspectRatio="xMidYMid meet" viewBox="0 0 640 640" width="200" height="200"><defs><path d="M153.99 207.43C71.06 219.19 7.48 291.86 10.08 378.56C10.08 378.56 10.08 378.56 10.08 378.56C12.72 466.3 84.32 538.15 172.06 541.02C172.06 541.02 172.06 541.02 172.06 541.02C266.99 544.14 345.22 467.84 345.32 373.59C345.32 373.59 345.32 373.59 345.32 373.59C345.33 359.54 334.03 348.09 319.98 348.09C319.98 348.09 319.98 348.09 319.98 348.09C250.06 348.09 211.21 348.09 203.44 348.09C188.63 348.09 176.79 360.8 178.23 375.91C178.23 375.91 178.23 375.91 178.23 375.91C179.48 389.08 191.3 398.76 204.53 398.76C204.53 398.76 204.53 398.76 204.53 398.76C256.95 398.76 286.07 398.76 291.89 398.76C280.22 451.46 232.92 490.92 176.66 490.45C176.66 490.45 176.66 490.45 176.66 490.45C113.09 489.91 60.66 436.98 60.66 373.41C60.66 373.41 60.66 373.41 60.66 373.41C60.67 308.9 113.15 256.43 177.65 256.43C177.65 256.43 177.65 256.43 177.65 256.43C191.66 256.43 202.93 244.61 202.99 230.61C202.99 230.61 202.99 230.61 202.99 230.61C203.25 166.32 255.63 114.1 319.98 114.1C319.98 114.1 319.98 114.1 319.98 114.1C384.56 114.1 437.09 166.67 437.01 231.25C437.01 231.25 437.01 231.25 437.01 231.25C436.99 245.26 448.35 256.43 462.36 256.43C462.36 256.43 462.36 256.43 462.36 256.43C528.62 256.44 582.19 311.82 579.22 378.72C579.22 378.72 579.22 378.72 579.22 378.72C576.49 440.26 521.04 490.45 459.44 490.45C459.44 490.45 459.44 490.45 459.44 490.45C417.5 490.45 394.19 490.45 389.53 490.45C374.72 490.45 362.88 503.16 364.32 518.27C364.32 518.27 364.32 518.27 364.32 518.27C365.57 531.44 377.39 541.11 390.62 541.11C390.62 541.11 390.62 541.11 390.62 541.11C431.51 541.11 454.22 541.11 458.76 541.11C549.62 541.11 626.67 470.3 629.89 379.49C629.89 379.49 629.89 379.49 629.89 379.49C632.98 292.38 569.23 219.23 486.01 207.43C486.01 207.43 486.01 207.43 486.01 207.43C474.48 126.14 404.42 63.44 319.98 63.44C319.98 63.44 319.98 63.44 319.98 63.44C235.56 63.44 165.52 126.14 153.99 207.43" id="a1Gbkcddy9"></path><linearGradient id="gradientd7CepKW321" gradientUnits="userSpaceOnUse" x1="320" y1="58.34" x2="320" y2="551.31"><stop style="stop-color: #00d1ff;stop-opacity: 1" offset="0%"></stop><stop style="stop-color: #1540f5;stop-opacity: 1" offset="100%"></stop></linearGradient></defs><g><g><g><use xlink:href="#a1Gbkcddy9" opacity="1" fill="url(#gradientd7CepKW321)"></use><g><use xlink:href="#a1Gbkcddy9" opacity="1" fill-opacity="0" stroke="#000000" stroke-width="1" stroke-opacity="0"></use></g></g></g></g></svg>