<svg width="80%" height="75" viewBox="0 0 473 75" fill="none" xmlns="http://www.w3.org/2000/svg">
    <path d="M55.6361 19.6663H58.3103L65.9318 11.9524L66.3062 8.67733C61.9401 4.77692 56.6637 2.06744 50.9754 0.80484C45.287 -0.457761 39.3746 -0.231798 33.7965 1.46138C28.2185 3.15456 23.159 6.25906 19.0959 10.4816C15.0329 14.7042 12.1005 19.9054 10.5757 25.5939C11.4248 25.2417 12.3653 25.1846 13.2499 25.4315L28.4929 22.8873C28.4929 22.8873 29.2684 21.5881 29.6695 21.6693C32.9356 18.0387 37.4493 15.8091 42.2865 15.4367C47.1237 15.0644 51.9186 16.5775 55.6896 19.6663H55.6361V19.6663Z" fill="#EA4335"/>
    <path d="M76.7891 25.594C75.0373 19.0645 71.4404 13.1946 66.4399 8.70444L55.7431 19.5311C57.9724 21.3747 59.759 23.7067 60.968 26.3511C62.1771 28.9955 62.7771 31.8833 62.7228 34.7966V36.7183C65.2477 36.7183 67.6692 37.7335 69.4545 39.5405C71.2399 41.3476 72.2429 43.7985 72.2429 46.354C72.2429 48.9096 71.2399 51.3604 69.4545 53.1675C67.6692 54.9745 65.2477 55.9897 62.7228 55.9897H43.6824L41.7837 57.9385V69.4959L43.6824 71.4176H62.7228C68.0397 71.4595 73.2288 69.7682 77.5224 66.5938C81.816 63.4193 84.9861 58.9305 86.5636 53.7912C88.1412 48.6519 88.0426 43.1351 86.2822 38.057C84.5219 32.9788 81.1934 28.609 76.7891 25.594V25.594Z" fill="#4285F4"/>
    <path d="M24.6153 71.3093H43.6557V55.8814H24.6153C23.2587 55.8811 21.9181 55.5857 20.6842 55.0153L18.01 55.8543L10.335 63.5683L9.66644 66.2749C13.9704 69.5644 19.2221 71.333 24.6153 71.3093V71.3093Z" fill="#34A853"/>
    <path d="M24.6153 21.2632C19.4562 21.2944 14.4356 22.9557 10.2547 26.015C6.07383 29.0743 2.94138 33.379 1.29491 38.3276C-0.351561 43.2763 -0.429833 48.6218 1.07103 53.6177C2.57189 58.6136 5.57693 63.0103 9.66643 66.1937L20.7109 55.0152C19.3074 54.3734 18.0787 53.3965 17.1302 52.1684C16.1816 50.9403 15.5417 49.4976 15.2651 47.9641C14.9886 46.4307 15.0838 44.8522 15.5425 43.3641C16.0012 41.8761 16.8098 40.5229 17.8988 39.4206C18.9879 38.3184 20.3248 37.5 21.7951 37.0357C23.2653 36.5714 24.8248 36.4751 26.3399 36.755C27.855 37.0349 29.2804 37.6826 30.4938 38.6426C31.7072 39.6026 32.6723 40.8463 33.3064 42.2668L44.3509 31.0883C42.0328 28.0211 39.045 25.5381 35.6213 23.8336C32.1976 22.1292 28.4307 21.2494 24.6153 21.2632V21.2632Z" fill="#FBBC05"/>
    <path d="M138.376 60.5369C135.098 60.5792 131.845 59.9513 128.812 58.6909C125.78 57.4306 123.029 55.5636 120.726 53.2019C118.351 50.9404 116.466 48.2039 115.191 45.1659C113.915 42.128 113.278 38.855 113.319 35.5545C113.28 32.2542 113.918 28.9817 115.193 25.944C116.468 22.9063 118.352 20.1696 120.726 17.9071C123.018 15.5209 125.763 13.6289 128.796 12.345C131.83 11.0612 135.088 10.412 138.376 10.4367C141.509 10.3945 144.619 10.9829 147.525 12.1678C150.431 13.3526 153.075 15.1103 155.304 17.3387L150.544 22.2377C147.284 19.0492 142.909 17.2974 138.376 17.3658C136.025 17.3365 133.693 17.8027 131.529 18.7346C129.366 19.6666 127.417 21.0439 125.807 22.7791C124.135 24.4588 122.815 26.4637 121.928 28.6732C121.041 30.8828 120.605 33.2511 120.646 35.6357C120.627 37.993 121.073 40.3306 121.959 42.5106C122.846 44.6907 124.154 46.6693 125.807 48.3299C129.119 51.6702 133.588 53.5703 138.263 53.626C142.938 53.6816 147.45 51.8882 150.838 48.6276C152.936 46.3026 154.223 43.3458 154.502 40.2099H138.456V33.2809H161.16C161.384 34.6764 161.473 36.0904 161.428 37.5033C161.569 40.4276 161.123 43.3505 160.116 46.0953C159.11 48.8401 157.564 51.3497 155.571 53.4725C153.356 55.8066 150.68 57.6421 147.718 58.8593C144.755 60.0765 141.572 60.6481 138.376 60.5369V60.5369ZM191.165 55.9356C188.118 58.8918 184.061 60.5422 179.84 60.5422C175.619 60.5422 171.561 58.8918 168.515 55.9356C166.998 54.4473 165.804 52.6562 165.007 50.6759C164.211 48.6957 163.83 46.5695 163.888 44.4323C163.831 42.2953 164.213 40.1696 165.009 38.1896C165.806 36.2096 166.999 34.4183 168.515 32.929C171.565 29.9791 175.621 28.3328 179.84 28.3328C184.059 28.3328 188.115 29.9791 191.165 32.929C192.68 34.4183 193.874 36.2096 194.67 38.1896C195.466 40.1696 195.848 42.2953 195.791 44.4323C195.846 46.5715 195.461 48.6989 194.66 50.6792C193.859 52.6596 192.66 54.4496 191.138 55.9356H191.165V55.9356ZM173.515 51.4155C174.326 52.2915 175.305 52.9898 176.393 53.4672C177.481 53.9446 178.654 54.1909 179.84 54.1909C181.026 54.1909 182.199 53.9446 183.287 53.4672C184.374 52.9898 185.354 52.2915 186.164 51.4155C187.048 50.4911 187.74 49.397 188.199 48.1976C188.658 46.9983 188.876 45.718 188.839 44.4323C188.878 43.1423 188.662 41.8573 188.202 40.6533C187.743 39.4493 187.05 38.3506 186.164 37.4221C185.343 36.555 184.357 35.8651 183.266 35.3938C182.174 34.9225 181 34.6795 179.813 34.6795C178.626 34.6795 177.452 34.9225 176.36 35.3938C175.269 35.8651 174.283 36.555 173.462 37.4221C172.576 38.3506 171.883 39.4493 171.424 40.6533C170.965 41.8573 170.748 43.1423 170.788 44.4323C170.754 45.7199 170.975 47.0013 171.439 48.2008C171.903 49.4002 172.6 50.4933 173.489 51.4155H173.515V51.4155ZM225.983 55.9356C222.936 58.8918 218.879 60.5422 214.658 60.5422C210.437 60.5422 206.38 58.8918 203.333 55.9356C201.816 54.4473 200.622 52.6562 199.825 50.6759C199.029 48.6957 198.648 46.5695 198.706 44.4323C198.65 42.2953 199.031 40.1696 199.828 38.1896C200.624 36.2096 201.817 34.4183 203.333 32.929C206.38 29.9729 210.437 28.3224 214.658 28.3224C218.879 28.3224 222.936 29.9729 225.983 32.929C227.499 34.4183 228.692 36.2096 229.488 38.1896C230.285 40.1696 230.666 42.2953 230.61 44.4323C230.668 46.5695 230.287 48.6957 229.491 50.6759C228.694 52.6562 227.5 54.4473 225.983 55.9356V55.9356ZM208.333 51.4155C209.144 52.2915 210.123 52.9898 211.211 53.4672C212.299 53.9446 213.472 54.1909 214.658 54.1909C215.844 54.1909 217.017 53.9446 218.105 53.4672C219.193 52.9898 220.172 52.2915 220.983 51.4155C221.866 50.4911 222.558 49.397 223.017 48.1976C223.477 46.9983 223.694 45.718 223.657 44.4323C223.696 43.1423 223.48 41.8573 223.021 40.6533C222.561 39.4493 221.868 38.3506 220.983 37.4221C220.161 36.555 219.175 35.8651 218.084 35.3938C216.992 34.9225 215.818 34.6795 214.631 34.6795C213.445 34.6795 212.27 34.9225 211.179 35.3938C210.087 35.8651 209.101 36.555 208.28 37.4221C207.394 38.3506 206.701 39.4493 206.242 40.6533C205.783 41.8573 205.566 43.1423 205.606 44.4323C205.572 45.7199 205.794 47.0013 206.258 48.2008C206.721 49.4002 207.418 50.4933 208.307 51.4155H208.333V51.4155ZM248.875 74.9904C245.669 75.0936 242.526 74.0809 239.969 72.1214C237.699 70.3942 235.912 68.0998 234.781 65.463L240.879 62.8917C241.542 64.4675 242.58 65.8529 243.9 66.9246C245.314 68.0776 247.087 68.6822 248.901 68.6298C250.052 68.7006 251.204 68.5197 252.279 68.0994C253.354 67.679 254.327 67.0291 255.132 66.1938C256.743 64.2268 257.539 61.7045 257.352 59.1565V56.8288H257.111C256.092 58.0538 254.805 59.0218 253.352 59.6561C251.899 60.2903 250.32 60.5733 248.741 60.4828C246.733 60.4889 244.746 60.0736 242.905 59.2629C241.063 58.4523 239.408 57.264 238.044 55.7732C236.563 54.2942 235.395 52.5266 234.609 50.5772C233.823 48.6279 233.436 46.5374 233.471 44.4323C233.434 42.3149 233.82 40.2117 234.606 38.249C235.392 36.2862 236.561 34.5044 238.044 33.0102C239.405 31.5132 241.059 30.319 242.9 29.5035C244.742 28.6881 246.731 28.2692 248.741 28.2736C250.442 28.2706 252.122 28.6496 253.661 29.3833C254.993 29.9717 256.18 30.8496 257.138 31.9546H257.379V29.3833H264.011V58.2092C264.185 60.4895 263.898 62.7819 263.167 64.946C262.436 67.1101 261.276 69.1004 259.759 70.7951C258.313 72.1947 256.605 73.287 254.736 74.0076C252.867 74.7281 250.874 75.0623 248.875 74.9904V74.9904ZM249.356 54.2033C250.498 54.2287 251.631 53.9994 252.676 53.5316C253.72 53.0639 254.65 52.3691 255.4 51.4967C257.05 49.5829 257.919 47.1061 257.833 44.5676C257.932 41.9863 257.063 39.4627 255.4 37.5033C254.651 36.6294 253.722 35.9336 252.677 35.4657C251.632 34.9978 250.498 34.7693 249.356 34.7966C248.183 34.7722 247.018 35.001 245.939 35.4677C244.86 35.9344 243.892 36.6283 243.098 37.5033C241.329 39.3923 240.368 41.9115 240.424 44.5135C240.397 45.7898 240.619 47.059 241.078 48.2481C241.537 49.4372 242.223 50.5228 243.098 51.4425C243.888 52.326 244.854 53.0291 245.933 53.5051C247.012 53.9811 248.179 54.2191 249.356 54.2033V54.2033ZM275.804 12.2502V59.5625H268.824V12.2502H275.804V12.2502ZM294.951 60.5369C292.861 60.5913 290.782 60.2083 288.845 59.4119C286.907 58.6154 285.153 57.4228 283.693 55.9085C282.21 54.4054 281.045 52.613 280.269 50.6402C279.492 48.6674 279.119 46.5553 279.173 44.4323C279.094 42.3041 279.439 40.1815 280.188 38.1912C280.937 36.2009 282.074 34.3837 283.532 32.8478C284.906 31.3821 286.567 30.2229 288.409 29.4445C290.251 28.6662 292.233 28.2858 294.229 28.3277C296.064 28.3081 297.884 28.6673 299.578 29.3833C301.102 30.0058 302.492 30.9261 303.669 32.09C304.679 33.0767 305.576 34.1753 306.343 35.365C306.964 36.3692 307.493 37.4302 307.921 38.5318L308.643 40.3723L287.249 49.2772C287.896 50.7819 288.979 52.0528 290.354 52.9225C291.728 53.7922 293.331 54.2199 294.951 54.1492C296.527 54.1535 298.077 53.7444 299.451 52.9617C300.824 52.179 301.973 51.0495 302.787 49.6832L308.135 53.3372C306.77 55.3136 305.023 56.9894 303.001 58.2633C300.595 59.8017 297.796 60.5922 294.951 60.5369V60.5369ZM286.019 43.9451L300.246 37.9634C299.808 36.9087 299.024 36.0389 298.026 35.5003C296.91 34.862 295.645 34.5351 294.363 34.553C292.186 34.6101 290.12 35.5341 288.613 37.1243C287.711 37.9978 287.011 39.0621 286.563 40.2412C286.114 41.4203 285.929 42.685 286.019 43.9451V43.9451ZM345.2 60.5369C342.231 60.5888 339.283 60.033 336.532 58.903C333.781 57.7729 331.284 56.0919 329.191 53.9609C327.098 51.8299 325.453 49.2927 324.352 46.5018C323.252 43.7109 322.721 40.7238 322.79 37.7198C322.721 34.7158 323.252 31.7287 324.352 28.9378C325.453 26.1469 327.098 23.6097 329.191 21.4787C331.284 19.3477 333.781 17.6667 336.532 16.5366C339.283 15.4066 342.231 14.8508 345.2 14.9027C348.204 14.8076 351.191 15.4009 353.937 16.6383C356.683 17.8756 359.117 19.725 361.058 22.0483L357.207 25.8376C355.782 24.0238 353.954 22.576 351.873 21.6119C349.791 20.6477 347.514 20.1945 345.226 20.2889C343.024 20.2387 340.835 20.6396 338.79 21.4676C336.745 22.2955 334.886 23.5334 333.326 25.1068C331.704 26.7579 330.436 28.7307 329.603 30.9013C328.77 33.0718 328.39 35.3933 328.486 37.7198C328.39 40.0463 328.77 42.3678 329.603 44.5384C330.436 46.7089 331.704 48.6817 333.326 50.3328C334.886 51.9062 336.745 53.1441 338.79 53.972C340.835 54.8 343.024 55.2009 345.226 55.1507C347.782 55.1797 350.311 54.6253 352.626 53.5288C354.941 52.4323 356.982 50.8218 358.597 48.8171L362.448 52.7147C360.432 55.155 357.901 57.1065 355.041 58.4257C351.958 59.8663 348.595 60.5878 345.2 60.5369V60.5369ZM372.797 59.5625H367.262V15.85H372.797V59.5625ZM381.836 33.2538C384.737 30.3382 388.659 28.7019 392.747 28.7019C396.835 28.7019 400.757 30.3382 403.658 33.2538C405.076 34.7696 406.184 36.5543 406.919 38.5053C407.653 40.4563 407.999 42.535 407.936 44.6218C407.999 46.7086 407.653 48.7873 406.919 50.7382C406.184 52.6892 405.076 54.4739 403.658 55.9897C400.757 58.9054 396.835 60.5417 392.747 60.5417C388.659 60.5417 384.737 58.9054 381.836 55.9897C380.418 54.4739 379.31 52.6892 378.575 50.7382C377.841 48.7873 377.495 46.7086 377.557 44.6218C377.495 42.535 377.841 40.4563 378.575 38.5053C379.31 36.5543 380.418 34.7696 381.836 33.2538V33.2538ZM385.954 52.4711C386.827 53.404 387.878 54.1471 389.043 54.655C390.209 55.1628 391.465 55.4248 392.734 55.4248C394.003 55.4248 395.258 55.1628 396.424 54.655C397.59 54.1471 398.641 53.404 399.513 52.4711C400.48 51.4203 401.232 50.1851 401.723 48.8375C402.214 47.4899 402.435 46.0568 402.374 44.6218C402.435 43.1867 402.214 41.7537 401.723 40.4061C401.232 39.0585 400.48 37.8233 399.513 36.7725C398.641 35.8395 397.59 35.0964 396.424 34.5886C395.258 34.0807 394.003 33.8188 392.734 33.8188C391.465 33.8188 390.209 34.0807 389.043 34.5886C387.878 35.0964 386.827 35.8395 385.954 36.7725C384.987 37.8233 384.236 39.0585 383.744 40.4061C383.253 41.7537 383.032 43.1867 383.093 44.6218C383.039 46.0542 383.266 47.4833 383.762 48.8261C384.258 50.1688 385.012 51.3986 385.981 52.444L385.954 52.4711V52.4711ZM438.61 59.5625H433.261V55.4213H433.101C432.149 56.9942 430.802 58.2831 429.196 59.1565C427.531 60.1336 425.639 60.6472 423.714 60.6452C422.151 60.7534 420.584 60.5029 419.13 59.9124C417.676 59.3218 416.373 58.4065 415.317 57.2348C413.292 54.6414 412.274 51.3872 412.456 48.0863V29.681H417.992V47.0578C417.992 52.6335 420.425 55.4213 425.292 55.4213C426.374 55.4555 427.447 55.2276 428.424 54.7568C429.401 54.2861 430.253 53.5859 430.908 52.7147C432.343 50.8742 433.108 48.5899 433.074 46.2458V29.681H438.61V59.5625V59.5625ZM457.409 60.5369C455.532 60.5432 453.675 60.1376 451.967 59.3479C450.258 58.5583 448.74 57.4033 447.515 55.9627C444.742 52.8633 443.258 48.8012 443.37 44.6218C443.258 40.4424 444.742 36.3802 447.515 33.2809C448.74 31.8402 450.258 30.6853 451.967 29.8956C453.675 29.106 455.532 28.7003 457.409 28.7066C459.513 28.673 461.592 29.1757 463.453 30.1682C465.089 31.0014 466.474 32.2632 467.464 33.8222H467.705L467.464 29.681V15.85H473V59.5625H467.652V55.4213H467.411C466.421 56.9804 465.035 58.2422 463.4 59.0753C461.554 60.0591 459.495 60.5615 457.409 60.5369V60.5369ZM458.319 55.4213C459.57 55.4398 460.811 55.1887 461.959 54.6847C463.107 54.1807 464.136 53.4354 464.977 52.4981C466.858 50.331 467.819 47.5011 467.652 44.6218C467.819 41.7425 466.858 38.9125 464.977 36.7454C464.13 35.8031 463.098 35.0502 461.947 34.5351C460.795 34.0199 459.551 33.7538 458.292 33.7538C457.033 33.7538 455.788 34.0199 454.637 34.5351C453.486 35.0502 452.453 35.8031 451.606 36.7454C450.672 37.8113 449.955 39.0533 449.496 40.4003C449.037 41.7472 448.846 43.1726 448.932 44.5947C448.846 46.0168 449.037 47.4422 449.496 48.7891C449.955 50.1361 450.672 51.3781 451.606 52.444C452.449 53.398 453.485 54.1576 454.643 54.6712C455.801 55.1849 457.054 55.4407 458.319 55.4213Z" fill="#5F6368"/>
</svg>
