<svg width="300" height="68" viewBox="0 0 397 68" fill="none" xmlns="http://www.w3.org/2000/svg">
    <path d="M63.2814 15.1236C62.8849 13.8365 61.9333 12.7907 60.7438 12.1471L36.5565 0.402223C35.922 0.0804445 35.2083 0 34.5739 0C33.9395 0 33.2258 0 32.5913 0.160889L8.40404 11.9862C7.2145 12.5493 6.34217 13.5951 6.02496 14.9627L0.0772692 41.4289C-0.160639 42.7965 0.156572 44.164 0.949598 45.2903L17.6824 66.2863C18.6341 67.2516 19.9822 67.8952 21.3304 67.9756H47.976C49.4035 68.1365 50.7516 67.493 51.624 66.2863L68.3568 45.2903C69.1498 44.164 69.467 42.7965 69.3084 41.4289L63.2814 15.1236V15.1236Z" fill="#326DE6"/>
    <path d="M59.5542 40.3832C59.4749 40.3832 59.3956 40.3832 59.3956 40.3027C59.3956 40.2223 59.237 40.2223 59.0784 40.2223C58.7612 40.1418 58.444 40.1418 58.1268 40.1418C57.9682 40.1418 57.8095 40.1418 57.6509 40.0614H57.5716C56.6993 39.9809 55.7477 39.8201 54.8754 39.5787C54.6374 39.4983 54.3995 39.2569 54.3202 39.0156C54.3995 39.0156 54.3202 39.0156 54.3202 39.0156L53.6858 38.8547C54.003 36.5218 53.8444 34.1085 53.3686 31.7756C52.8135 29.4427 51.8619 27.1903 50.593 25.1791L51.0688 24.6965V24.616C51.0688 24.3747 51.1481 24.0529 51.3067 23.892C52.0205 23.2485 52.7342 22.7658 53.5272 22.2831L54.003 22.0418C54.3202 21.8809 54.5581 21.72 54.8754 21.5591C54.9547 21.4787 55.034 21.4787 55.1133 21.3983C55.1926 21.3178 55.1133 21.3178 55.1133 21.2374C55.827 20.6743 55.9856 19.7089 55.4305 18.9849C55.1926 18.6631 54.7168 18.4218 54.3202 18.4218C53.9237 18.4218 53.5272 18.5827 53.21 18.824L53.1307 18.9045C53.0514 18.9849 52.9721 19.0654 52.8928 19.0654C52.6549 19.3067 52.417 19.548 52.2584 19.7894C52.1791 19.9503 52.0205 20.0307 51.9412 20.1111C51.386 20.7547 50.6723 21.3983 49.9586 21.8809C49.8 21.9614 49.6414 22.0418 49.4828 22.0418C49.4035 22.0418 49.2449 22.0418 49.1656 21.9614H49.0863L48.4518 22.3636C47.8174 21.72 47.1037 21.0765 46.4693 20.4329C43.5351 18.1 39.8872 16.652 36.1599 16.2498L36.0806 15.6063V15.6867C35.8427 15.5258 35.7634 15.2845 35.6841 15.0431C35.6841 14.1582 35.6841 13.2734 35.8427 12.308V12.2276C35.8427 12.0667 35.922 11.9058 35.922 11.7449C36.0013 11.4231 36.0013 11.1014 36.0806 10.7796V10.2969C36.1599 9.49247 35.5255 8.68802 34.7325 8.60758C34.2567 8.52713 33.7809 8.76847 33.3844 9.17069C33.0671 9.49247 32.9085 9.89469 32.9085 10.2969V10.6991C32.9085 11.0209 32.9878 11.3427 33.0671 11.6645C33.1464 11.8254 33.1464 11.9862 33.1464 12.1471V12.2276C33.3051 13.1125 33.3051 13.9974 33.3051 14.9627C33.2258 15.204 33.1464 15.4454 32.9085 15.6063V15.7671L32.8292 16.4107C31.9569 16.4911 31.0846 16.652 30.1329 16.8129C26.4057 17.6174 22.9957 19.6285 20.3787 22.444L19.9029 22.1223H19.8236C19.7443 22.1223 19.665 22.2027 19.5064 22.2027C19.3478 22.2027 19.1892 22.1223 19.0306 22.0418C18.3169 21.4787 17.6031 20.8351 17.048 20.1916C16.9687 20.0307 16.8101 19.9503 16.7308 19.8698C16.4929 19.6285 16.3343 19.3871 16.0964 19.1458C16.0171 19.0654 15.9378 19.0654 15.8585 18.9849L15.7792 18.9045C15.462 18.6631 15.0655 18.5023 14.6689 18.5023C14.1931 18.5023 13.7966 18.6631 13.5587 19.0654C13.0829 19.7894 13.2415 20.7547 13.8759 21.3178C13.9552 21.3178 13.9552 21.3983 13.9552 21.3983C13.9552 21.3983 14.1138 21.5591 14.1931 21.5591C14.431 21.72 14.7482 21.8809 15.0655 22.0418L15.5413 22.2831C16.3343 22.7658 17.1273 23.2485 17.7617 23.892C17.9203 24.0529 18.079 24.3747 17.9997 24.616V24.5356L18.4755 25.0183C18.3962 25.1791 18.3169 25.2596 18.2376 25.4205C15.7792 29.3623 14.7482 34.028 15.462 38.6134L14.8275 38.7743C14.8275 38.8547 14.7482 38.8547 14.7482 38.8547C14.6689 39.0961 14.431 39.2569 14.1931 39.4178C13.3208 39.6592 12.4485 39.8201 11.4968 39.9005C11.3382 39.9005 11.1796 39.9005 11.021 39.9809C10.7038 39.9809 10.3866 40.0614 10.0694 40.0614C9.99009 40.0614 9.91079 40.1418 9.75218 40.1418C9.67288 40.1418 9.67288 40.1418 9.59358 40.2223C8.72125 40.3832 8.16613 41.1876 8.32473 42.0725C8.48334 42.7965 9.19706 43.2792 9.91079 43.1987C10.0694 43.1987 10.1487 43.1987 10.3073 43.1183C10.3866 43.1183 10.3866 43.1183 10.3866 43.0378C10.3866 42.9574 10.6245 43.0378 10.7038 43.0378C11.021 42.9574 11.3382 42.7965 11.5761 42.7161C11.7347 42.6356 11.8934 42.5552 12.052 42.5552H12.1313C13.0036 42.2334 13.7966 41.9921 14.7482 41.8312H14.8275C15.0655 41.8312 15.3034 41.9116 15.462 42.0725C15.5413 42.0725 15.5413 42.1529 15.5413 42.1529L16.255 42.0725C17.4445 45.7729 19.665 49.0712 22.7578 51.4845C23.4715 52.0476 24.106 52.5303 24.899 52.9325L24.5025 53.4956C24.5025 53.5761 24.5818 53.5761 24.5818 53.5761C24.7404 53.8174 24.7404 54.1392 24.6611 54.3805C24.3439 55.185 23.868 55.9894 23.3922 56.7134V56.7938C23.3129 56.9547 23.2336 57.0352 23.075 57.1961C22.9164 57.357 22.7578 57.6787 22.5199 58.0005C22.4406 58.081 22.4406 58.1614 22.3613 58.2419C22.3613 58.2419 22.3613 58.3223 22.282 58.3223C21.8855 59.1267 22.2027 60.0921 22.9164 60.4943C23.075 60.5747 23.3129 60.6552 23.4715 60.6552C24.106 60.6552 24.6611 60.253 24.9783 59.6898C24.9783 59.6898 24.9783 59.6094 25.0576 59.6094C25.0576 59.529 25.1369 59.4485 25.2162 59.3681C25.2955 59.0463 25.4541 58.805 25.5334 58.4832L25.692 58.0005C25.9299 57.1156 26.3264 56.3112 26.7229 55.5067C26.8815 55.2654 27.1195 55.1045 27.3574 55.0241C27.4367 55.0241 27.4367 55.0241 27.4367 54.9436L27.7539 54.3001C29.9743 55.185 32.2741 55.5872 34.6532 55.5872C36.0806 55.5872 37.5081 55.4263 38.9355 55.0241C39.8079 54.8632 40.6802 54.5414 41.4732 54.3001L41.7904 54.8632C41.8697 54.8632 41.8697 54.8632 41.8697 54.9436C42.1076 55.0241 42.3455 55.185 42.5042 55.4263C42.9007 56.2307 43.2972 57.0352 43.5351 57.9201V58.0005L43.6937 58.4832C43.773 58.805 43.8523 59.1267 44.0109 59.3681C44.0902 59.4485 44.0902 59.529 44.1695 59.6094C44.1695 59.6094 44.1695 59.6898 44.2488 59.6898C44.566 60.253 45.1211 60.6552 45.7556 60.6552C45.9935 60.6552 46.1521 60.5747 46.39 60.4943C46.7072 60.3334 47.0244 60.0116 47.1037 59.6094C47.183 59.2072 47.183 58.805 47.0244 58.4027C47.0244 58.3223 46.9451 58.3223 46.9451 58.3223C46.9451 58.2418 46.8658 58.1614 46.7865 58.081C46.6279 57.7592 46.4693 57.5178 46.2314 57.2765C46.1521 57.1156 46.0728 57.0352 45.9142 56.8743V56.7134C45.359 55.9894 44.9625 55.185 44.6453 54.3805C44.566 54.1392 44.566 53.8174 44.7246 53.5761C44.7246 53.4956 44.8039 53.4956 44.8039 53.4956L44.566 52.8521C48.6104 50.3583 51.7033 46.4969 53.1307 41.9116L53.7651 41.9921C53.8444 41.9921 53.8444 41.9116 53.8444 41.9116C54.003 41.7507 54.2409 41.6703 54.4788 41.6703H54.5581C55.4305 41.8312 56.3028 42.0725 57.0958 42.3943H57.1751C57.3337 42.4747 57.4923 42.5552 57.6509 42.5552C57.9682 42.7161 58.2061 42.8769 58.5233 42.9574C58.6026 42.9574 58.6819 43.0378 58.8405 43.0378C58.9198 43.0378 58.9198 43.0378 58.9991 43.1183C59.1577 43.1987 59.237 43.1987 59.3956 43.1987C60.1093 43.1987 60.7438 42.7161 60.9817 42.0725C60.9024 41.1876 60.2679 40.5441 59.5542 40.3832V40.3832ZM36.6358 37.8894L34.4946 38.9352L32.3534 37.8894L31.7983 35.5565L33.3051 33.6258H35.6841L37.1909 35.5565L36.6358 37.8894V37.8894ZM49.5621 32.6605C49.9586 34.3498 50.0379 36.0392 49.8793 37.7285L42.3455 35.5565C41.6318 35.3956 41.2353 34.6716 41.3939 33.9476C41.4732 33.7063 41.5525 33.5454 41.7111 33.3845L47.6588 27.9143C48.5311 29.3623 49.1656 30.9712 49.5621 32.6605V32.6605ZM45.2797 24.9378L38.7769 29.6036C38.2218 29.9254 37.4288 29.8449 37.0323 29.2818C36.8737 29.1209 36.7944 28.96 36.7944 28.7187L36.3185 20.5938C39.8079 20.996 42.9007 22.5245 45.2797 24.9378V24.9378ZM30.926 20.8351L32.512 20.5134L32.1155 28.5578C32.1155 29.2818 31.4811 29.8449 30.7674 29.8449C30.5295 29.8449 30.3709 29.7645 30.1329 29.684L23.5508 24.9378C25.6127 22.9267 28.1504 21.4787 30.926 20.8351ZM21.2511 27.9143L27.1194 33.2236C27.6746 33.7063 27.7539 34.5107 27.2781 35.0738C27.1194 35.3152 26.9608 35.3956 26.6436 35.476L18.9513 37.7285C18.7134 34.3498 19.5064 30.8907 21.2511 27.9143V27.9143ZM19.9029 41.5094L27.7539 40.1418C28.3883 40.1418 29.0227 40.5441 29.102 41.1876C29.1813 41.4289 29.1813 41.7507 29.0227 41.9921L26.0092 49.393C23.2336 47.5427 21.0131 44.7272 19.9029 41.5094V41.5094ZM37.9046 51.4845C36.7944 51.7258 35.6841 51.8867 34.4946 51.8867C32.8292 51.8867 31.0846 51.565 29.4985 51.0823L33.3844 43.9227C33.7809 43.4401 34.4153 43.2792 34.9704 43.6009C35.2083 43.7618 35.3669 43.9227 35.6048 44.1641L39.4113 51.1627C38.9355 51.2432 38.4597 51.3236 37.9046 51.4845V51.4845ZM47.5795 44.4858C46.39 46.4165 44.7246 48.1058 42.8214 49.3125L39.7286 41.7507C39.57 41.1072 39.8872 40.4636 40.4423 40.2223C40.6802 40.1418 40.9181 40.0614 41.156 40.0614L49.0863 41.4289C48.6898 42.5552 48.2139 43.6009 47.5795 44.4858Z" fill="white"/>
    <path d="M384.219 50.2778C385.329 50.3582 386.519 50.1974 387.55 49.7951C388.184 49.4734 388.581 48.7494 388.501 48.0254C388.422 47.2209 387.946 46.4969 387.233 46.2556C386.043 45.5316 384.695 44.888 383.347 44.4858C381.999 44.0031 380.809 43.44 379.699 42.8769C378.668 42.3942 377.796 41.7507 376.923 40.9462C376.13 40.1418 375.575 39.2569 375.179 38.2111C374.703 37.0045 374.544 35.7173 374.544 34.4302C374.465 31.7756 375.654 29.2013 377.716 27.5924C379.857 25.9031 382.712 25.0987 386.36 25.0987C388.105 25.0987 389.929 25.2596 391.673 25.6618C393.022 25.9031 394.37 26.2249 395.718 26.7076L394.211 33.5453C393.101 33.1431 392.07 32.9018 390.96 32.58C389.691 32.2582 388.343 32.1778 387.074 32.1778C384.378 32.1778 383.029 32.9018 383.029 34.4302C383.029 34.752 383.109 35.0738 383.188 35.3956C383.347 35.7173 383.585 35.9587 383.902 36.2C384.219 36.4413 384.695 36.6827 385.25 37.0045C385.805 37.3262 386.598 37.648 387.55 37.9698C389.136 38.5329 390.722 39.2569 392.149 40.0613C393.26 40.6245 394.211 41.3485 395.004 42.3138C395.718 43.0378 396.194 43.9227 396.511 44.9685C396.828 46.0947 396.987 47.2209 396.987 48.3471C397.145 51.0822 395.876 53.7369 393.577 55.2654C391.356 56.7938 388.184 57.5983 384.06 57.5983C381.761 57.6787 379.54 57.4374 377.32 56.8743C376.051 56.5525 374.861 56.1503 373.672 55.748L375.099 48.6689C376.527 49.232 378.033 49.7147 379.54 50.0365C381.126 50.1169 382.633 50.2778 384.219 50.2778V50.2778ZM340.523 41.4289C340.444 39.0156 340.92 36.6022 341.713 34.3498C342.427 32.4191 343.537 30.7298 344.964 29.2013C346.312 27.8338 347.819 26.788 349.564 26.1444C351.308 25.4204 353.132 25.0987 354.956 25.0987C359.239 25.0987 362.649 26.4662 365.107 29.1209C367.565 31.7756 368.834 35.7173 368.834 40.8658C368.834 41.3485 368.834 41.9116 368.755 42.5551C368.755 43.1987 368.676 43.6814 368.676 44.164H349.326C349.484 45.8534 350.357 47.4622 351.784 48.4276C353.529 49.5538 355.591 50.1169 357.653 50.0365C359.159 50.0365 360.745 49.8756 362.252 49.6342C363.521 49.3929 364.79 48.9907 365.979 48.4276L367.169 55.5067C366.614 55.8285 365.979 55.9894 365.345 56.2307C364.473 56.472 363.6 56.7134 362.728 56.7938C361.776 56.9547 360.825 57.1156 359.715 57.2765C358.684 57.3569 357.573 57.4374 356.463 57.4374C354.005 57.5178 351.626 57.1156 349.326 56.2307C347.423 55.5067 345.757 54.3805 344.33 52.9325C342.982 51.4845 342.03 49.7147 341.396 47.8645C340.841 45.6925 340.523 43.5205 340.523 41.4289V41.4289ZM360.587 38.1307C360.587 37.4067 360.428 36.6827 360.19 35.9587C360.032 35.2347 359.635 34.6716 359.239 34.1085C358.763 33.5453 358.208 33.0627 357.573 32.7409C356.78 32.3387 355.987 32.1778 355.115 32.1778C354.243 32.1778 353.45 32.3387 352.657 32.7409C352.022 33.0627 351.388 33.4649 350.912 34.028C350.436 34.5911 350.04 35.2347 349.802 35.9587C349.564 36.6827 349.405 37.4067 349.326 38.1307H360.587V38.1307ZM317.288 18.1804L325.852 16.8129V25.8227H336.162V33.0627H325.852V43.8422C325.773 45.3707 326.09 46.8991 326.804 48.1862C327.438 49.232 328.707 49.7951 330.69 49.7951C331.641 49.7951 332.593 49.7147 333.465 49.5538C334.417 49.3929 335.289 49.1516 336.162 48.8298L337.351 55.5871C336.241 56.0698 335.051 56.3916 333.862 56.7134C332.355 57.0351 330.769 57.196 329.183 57.196C327.2 57.2765 325.218 56.9547 323.394 56.2307C321.966 55.6676 320.698 54.7023 319.746 53.576C318.794 52.3694 318.16 50.9214 317.763 49.3929C317.367 47.6231 317.208 45.7729 317.288 44.0031V18.1804V18.1804ZM282.632 41.4289C282.553 39.0156 283.029 36.6022 283.822 34.3498C284.536 32.4191 285.646 30.7298 287.073 29.2013C288.421 27.8338 289.928 26.788 291.673 26.1444C293.418 25.4204 295.242 25.0987 297.065 25.0987C301.348 25.0987 304.758 26.4662 307.216 29.1209C309.675 31.7756 310.943 35.7173 310.943 40.8658C310.943 41.3485 310.943 41.9116 310.864 42.5551C310.785 43.1987 310.785 43.6814 310.785 44.164H291.356C291.514 45.8534 292.387 47.4622 293.814 48.4276C295.559 49.5538 297.621 50.1169 299.682 50.0365C301.189 50.0365 302.775 49.8756 304.282 49.6342C305.551 49.3929 306.82 48.9907 308.089 48.4276L309.278 55.5067C308.723 55.8285 308.089 55.9894 307.454 56.2307C306.582 56.472 305.709 56.7134 304.837 56.7938C303.885 56.9547 302.934 57.1156 301.824 57.2765C300.793 57.3569 299.682 57.4374 298.572 57.4374C296.114 57.5178 293.735 57.1156 291.435 56.2307C289.532 55.5067 287.866 54.3805 286.439 52.9325C285.091 51.4845 284.139 49.7147 283.505 47.8645C282.87 45.6925 282.553 43.5205 282.632 41.4289V41.4289ZM302.696 38.1307C302.696 37.4067 302.537 36.6827 302.299 35.9587C302.141 35.2347 301.744 34.6716 301.348 34.1085C300.872 33.5453 300.317 33.0627 299.682 32.7409C298.889 32.3387 298.096 32.1778 297.224 32.1778C296.352 32.1778 295.559 32.3387 294.766 32.7409C294.131 33.0627 293.576 33.4649 293.1 34.028C292.625 34.5911 292.228 35.2347 291.99 35.9587C291.752 36.6827 291.594 37.4067 291.514 38.1307H302.696V38.1307ZM250.118 26.8684C251.942 26.3858 253.846 25.9836 255.749 25.6618C258.128 25.2596 260.586 25.0987 262.965 25.0987C265.107 25.0182 267.248 25.4204 269.31 26.1444C270.896 26.7076 272.323 27.6729 273.354 28.96C274.385 30.2471 275.099 31.7756 275.495 33.3845C275.971 35.2347 276.13 37.1653 276.13 39.096V56.3916H267.644V40.2222C267.644 37.4067 267.248 35.476 266.534 34.2693C265.82 33.1431 264.472 32.4996 262.49 32.4996C261.855 32.4996 261.221 32.4996 260.507 32.58C259.793 32.58 259.238 32.6605 258.683 32.7409V56.3916H250.118V26.8684V26.8684ZM244.091 33.5453C243.298 33.3845 242.426 33.1431 241.395 32.9822C240.285 32.7409 239.175 32.6605 238.064 32.6605C237.43 32.6605 236.796 32.7409 236.082 32.8213C235.527 32.9018 234.972 32.9822 234.416 33.1431V56.5525H225.852V27.4316C227.596 26.788 229.42 26.3053 231.244 25.9031C233.544 25.34 235.923 25.0987 238.223 25.1791C238.778 25.1791 239.333 25.2596 239.888 25.2596C240.523 25.2596 241.157 25.34 241.871 25.5009C242.505 25.5813 243.14 25.6618 243.853 25.8227C244.409 25.9031 244.964 26.064 245.519 26.3053L244.091 33.5453V33.5453ZM190.879 41.4289C190.8 39.0156 191.276 36.6022 192.069 34.3498C192.783 32.4191 193.893 30.7298 195.32 29.2013C196.668 27.8338 198.175 26.788 199.92 26.1444C201.664 25.4204 203.488 25.0987 205.312 25.0987C209.595 25.0987 213.005 26.4662 215.463 29.1209C217.921 31.7756 219.19 35.7173 219.19 40.7854C219.19 41.268 219.19 41.8311 219.111 42.4747C219.032 43.1182 219.032 43.6009 219.032 44.0836H199.603C199.761 45.7729 200.634 47.3818 202.061 48.3471C203.806 49.4734 205.867 50.0365 207.929 49.956C209.436 49.956 211.022 49.7951 212.529 49.5538C213.798 49.3125 215.067 48.9102 216.256 48.4276L217.446 55.5067C216.891 55.8285 216.256 55.9894 215.622 56.2307C214.749 56.472 213.877 56.7134 213.005 56.7938C212.053 56.9547 211.101 57.1156 209.991 57.2765C208.96 57.3569 207.85 57.4374 206.74 57.4374C204.281 57.5178 201.902 57.1156 199.603 56.2307C197.699 55.5067 196.034 54.3805 194.607 52.9325C193.258 51.4845 192.307 49.7147 191.672 47.8645C191.197 45.6925 190.879 43.6009 190.879 41.4289V41.4289ZM211.022 38.1307C211.022 37.4067 210.864 36.6827 210.626 35.9587C210.467 35.2347 210.071 34.6716 209.674 34.1085C209.198 33.5453 208.643 33.0627 208.009 32.7409C207.216 32.3387 206.423 32.1778 205.55 32.1778C204.678 32.1778 203.885 32.3387 203.092 32.7409C202.457 33.0627 201.823 33.4649 201.347 34.028C200.871 34.5911 200.475 35.2347 200.237 35.9587C199.999 36.6827 199.841 37.4067 199.761 38.1307H211.022V38.1307ZM177.001 40.9462C177.001 35.3151 174.939 32.58 170.895 32.58C170.023 32.58 169.15 32.6605 168.278 32.9018C167.564 33.0627 166.851 33.3845 166.216 33.7867V49.5538C166.613 49.6342 167.168 49.7147 167.802 49.7951C168.437 49.8756 169.15 49.8756 169.943 49.8756C172.005 50.0365 173.988 49.1516 175.257 47.4622C176.446 45.5316 177.081 43.2791 177.001 40.9462V40.9462ZM185.725 41.268C185.725 43.5205 185.407 45.7729 184.614 47.9449C183.98 49.8756 182.949 51.5649 181.601 53.0129C180.173 54.4609 178.508 55.5871 176.684 56.3111C174.543 57.1156 172.323 57.4374 170.023 57.4374C168.992 57.4374 167.882 57.3569 166.771 57.2765C165.661 57.196 164.551 57.0351 163.441 56.9547C162.41 56.7938 161.379 56.6329 160.348 56.3916C159.317 56.2307 158.445 55.9894 157.731 55.6676V12.6298L166.296 11.2622V26.5467C167.247 26.1444 168.278 25.8227 169.309 25.5813C170.419 25.34 171.529 25.2596 172.64 25.2596C174.622 25.2596 176.526 25.5813 178.35 26.4662C179.936 27.1902 181.363 28.3164 182.473 29.684C183.663 31.2125 184.535 32.9018 185.011 34.752C185.487 36.7631 185.725 39.0156 185.725 41.268V41.268ZM149.563 55.4263C147.739 55.9089 145.835 56.3111 143.932 56.5525C141.553 56.9547 139.095 57.1156 136.716 57.1156C134.495 57.196 132.354 56.7938 130.292 56.0698C128.706 55.4263 127.358 54.4609 126.248 53.1738C125.217 51.8063 124.503 50.2778 124.107 48.5885C123.631 46.7382 123.472 44.7271 123.472 42.7965V25.8227H132.037V41.8311C132.037 44.6467 132.433 46.6578 133.147 47.8645C133.861 49.0711 135.209 49.7147 137.191 49.7147C137.826 49.7147 138.46 49.7147 139.174 49.6342C139.888 49.5538 140.443 49.5538 140.998 49.3929V25.8227H149.563V55.4263V55.4263ZM99.602 36.924C100.474 35.9587 101.267 34.9933 102.219 34.028C103.091 32.9822 103.964 32.0169 104.836 31.0516C105.708 30.0058 106.501 29.1209 107.215 28.236C107.929 27.3511 108.643 26.5467 109.198 25.9031H119.348C117.287 28.236 115.304 30.5689 113.401 32.7409C111.418 34.9129 109.356 37.1653 107.056 39.4178C108.325 40.6245 109.515 41.8311 110.625 43.1987C111.815 44.6467 113.004 46.0947 114.194 47.7036C115.304 49.232 116.414 50.8409 117.366 52.3694C118.317 53.8978 119.11 55.3458 119.745 56.6329H109.911C109.277 55.5871 108.563 54.5414 107.77 53.3347C106.977 52.128 106.105 50.9214 105.312 49.6342C104.439 48.4276 103.488 47.2209 102.457 46.0947C101.585 45.0489 100.633 44.0836 99.602 43.2791V56.7134H91.0374V12.6298L99.602 11.2622V36.924" fill="black"/>
</svg>
